<svg width="19" height="28" viewBox="0 0 19 28" fill="none" xmlns="http://www.w3.org/2000/svg">
<g clip-path="url(#clip0)">
<path d="M4.76718 27.7519C7.3019 27.7519 9.35907 25.7242 9.35907 23.2257V18.6995H4.76718C2.23246 18.6995 0.175293 20.7272 0.175293 23.2257C0.175293 25.7242 2.23246 27.7519 4.76718 27.7519Z" fill="#0ACF83"/>
<path d="M0.175293 14.1732C0.175293 11.6747 2.23246 9.64694 4.76718 9.64694H9.35907V18.6994H4.76718C2.23246 18.6994 0.175293 16.6717 0.175293 14.1732Z" fill="#A259FF"/>
<path d="M0.175537 5.1207C0.175537 2.62221 2.2327 0.594452 4.76742 0.594452H9.35931V9.64695H4.76742C2.2327 9.64695 0.175537 7.61919 0.175537 5.1207Z" fill="#F24E1E"/>
<path d="M9.35889 0.594452H13.9508C16.4855 0.594452 18.5427 2.62221 18.5427 5.1207C18.5427 7.61919 16.4855 9.64695 13.9508 9.64695H9.35889V0.594452Z" fill="#FF7262"/>
<path d="M18.5427 14.1732C18.5427 16.6717 16.4855 18.6994 13.9508 18.6994C11.4161 18.6994 9.35889 16.6717 9.35889 14.1732C9.35889 11.6747 11.4161 9.64694 13.9508 9.64694C16.4855 9.64694 18.5427 11.6747 18.5427 14.1732Z" fill="#1ABCFE"/>
</g>
<defs>
<clipPath id="clip0">
<rect width="18.3712" height="27.1575" fill="white" transform="translate(0.17334 0.594452)"/>
</clipPath>
</defs>
</svg>
