<svg width="32" height="28" viewBox="0 0 32 28" fill="none" xmlns="http://www.w3.org/2000/svg">
<path d="M17.1089 10.0105H10.2156L8.04811 6.27963H19.2763L22.5453 0.594458H3.99743C3.41285 0.593371 2.83845 0.747377 2.33283 1.04076C1.8272 1.33415 1.40846 1.75642 1.11931 2.26448C0.822638 2.77103 0.66626 3.34746 0.66626 3.9345C0.66626 4.52153 0.822638 5.09797 1.11931 5.60452L12.9516 26.1067C13.2466 26.6077 13.6673 27.023 14.1721 27.3116C14.6769 27.6001 15.2483 27.7519 15.8297 27.7519C16.4111 27.7519 16.9825 27.6001 17.4873 27.3116C17.9921 27.023 18.4128 26.6077 18.7078 26.1067L19.0987 25.4316L13.6622 15.98L17.1089 10.0105Z" fill="#4AD295"/>
<path d="M30.5755 2.26448C30.2864 1.75642 29.8676 1.33415 29.362 1.04076C28.8564 0.747377 28.282 0.593371 27.6974 0.594458H26.8802L17.9971 15.98L21.266 21.6651L30.5755 5.56898C30.8655 5.06663 31.0182 4.49679 31.0182 3.91673C31.0182 3.33667 30.8655 2.76683 30.5755 2.26448V2.26448Z" fill="#4AD295"/>
</svg>
