<svg width="28" height="28" viewBox="0 0 28 28" fill="none" xmlns="http://www.w3.org/2000/svg">
<g clip-path="url(#clip0)">
<rect x="4.70386" y="3.41742" width="18.0031" height="19.0267" fill="white"/>
<path d="M2.02828 6.10352e-05C1.77864 6.10352e-05 1.59266 0.203497 1.61483 0.452076L3.71927 24.0569C3.74144 24.3055 3.95628 24.5636 4.1969 24.6304L13.1271 27.1099C13.3676 27.1767 13.7612 27.1767 14.0018 27.1101L22.9592 24.6265C23.1997 24.5597 23.4148 24.3017 23.437 24.0531L25.5449 0.452076C25.5672 0.203497 25.381 6.10352e-05 25.1314 6.10352e-05H2.02828ZM21.0632 5.41374C21.0433 5.63548 21.0089 6.02044 20.9868 6.26907L20.9313 6.8884C20.909 7.13692 20.8772 7.49239 20.8605 7.67822C20.8437 7.86409 20.8279 8.01618 20.825 8.01618C20.8222 8.01618 20.6155 8.01618 20.3659 8.01618H14.0337C13.7841 8.01618 13.5778 8.01618 13.5751 8.01618C13.5724 8.01618 13.3658 8.01618 13.1162 8.01618H9.78123C9.53159 8.01618 9.34561 8.21962 9.36778 8.46819L9.56231 10.6426C9.58448 10.8911 9.80696 11.0946 10.0565 11.0946H13.1163C13.3659 11.0946 13.5724 11.0946 13.5751 11.0946C13.5779 11.0946 13.7842 11.0946 14.0338 11.0946H19.293C19.5426 11.0946 19.9289 11.0946 20.1514 11.0946C20.3737 11.0946 20.5393 11.2761 20.5191 11.4978C20.4988 11.7196 20.4642 12.1046 20.4421 12.3532L19.8166 19.3633C19.7943 19.612 19.7661 19.9296 19.7539 20.0692C19.7415 20.2087 19.5346 20.3774 19.2941 20.4442L14.0173 21.9073C13.7767 21.974 13.5769 22.0291 13.5731 22.03C13.5694 22.0308 13.3696 21.9768 13.1289 21.9101L7.8465 20.4443C7.60593 20.3776 7.39098 20.1195 7.36886 19.8709L7.02883 16.0544C7.00665 15.8058 7.19285 15.6024 7.44249 15.6024H7.92458C8.17422 15.6024 8.58268 15.6024 8.83227 15.6024H9.55117C9.80081 15.6024 10.0231 15.8058 10.0454 16.0544L10.1788 17.5484C10.2009 17.7971 10.4162 18.0537 10.6572 18.1188L13.1281 18.786C13.369 18.8511 13.5671 18.9044 13.5682 18.9044C13.5693 18.9044 13.7673 18.851 14.0082 18.7859L16.4836 18.1171C16.7245 18.052 16.9399 17.7953 16.9622 17.5467L17.2306 14.5534C17.253 14.3048 17.067 14.1014 16.8174 14.1014H14.0338C13.7841 14.1014 13.5778 14.1014 13.5751 14.1014C13.5724 14.1014 13.3659 14.1014 13.1163 14.1014H7.30791C7.05827 14.1014 6.836 13.8979 6.81383 13.6494L6.15519 6.26912C6.13302 6.02049 6.09864 5.63563 6.07875 5.41379C6.05907 5.19205 6.24702 5.01058 6.49666 5.01058H13.1163C13.3659 5.01058 13.5724 5.01058 13.5751 5.01058C13.5779 5.01058 13.7842 5.01058 14.0338 5.01058H20.6453C20.8949 5.01047 21.083 5.19189 21.0632 5.41374Z" fill="#DD512A"/>
</g>
<defs>
<clipPath id="clip0">
<rect width="27.16" height="27.16" fill="white" transform="translate(-0.000244141)"/>
</clipPath>
</defs>
</svg>
