<?xml version="1.0" encoding="utf-8"?>
<!-- Generator: Adobe Illustrator 23.0.2, SVG Export Plug-In . SVG Version: 6.00 Build 0)  -->
<svg version="1.1" id="master-artboard" xmlns="http://www.w3.org/2000/svg" xmlns:xlink="http://www.w3.org/1999/xlink" x="0px"
	 y="0px" viewBox="0 0 1500 1500" style="enable-background:new 0 0 1500 1500;" xml:space="preserve">
<style type="text/css">
	.st0{fill-rule:evenodd;clip-rule:evenodd;fill:#2E4052;}
	.st1{fill-rule:evenodd;clip-rule:evenodd;fill:#395066;stroke:#FAFF81;stroke-width:4;stroke-miterlimit:10;}
	.st2{fill-rule:evenodd;clip-rule:evenodd;fill:#50708F;}
	.st3{fill:none;stroke:#FAFF81;stroke-width:2.8346;stroke-linecap:round;stroke-linejoin:round;stroke-miterlimit:22.9256;}
	.st4{fill:none;stroke:#250C03;stroke-width:2.8346;stroke-linecap:round;stroke-linejoin:round;stroke-miterlimit:22.9256;}
	.st5{fill-rule:evenodd;clip-rule:evenodd;fill:#250C03;}
	.st6{fill-rule:evenodd;clip-rule:evenodd;fill:#F05146;}
	.st7{fill-rule:evenodd;clip-rule:evenodd;fill:#C5352D;}
	.st8{fill-rule:evenodd;clip-rule:evenodd;fill:#FFFFFF;}
	.st9{fill-rule:evenodd;clip-rule:evenodd;fill:#D9C9CB;}
	
		.st10{fill-rule:evenodd;clip-rule:evenodd;fill:#A5DDEB;stroke:#000000;stroke-width:0.216;stroke-linecap:round;stroke-linejoin:round;stroke-miterlimit:22.9256;}
	.st11{fill-rule:evenodd;clip-rule:evenodd;fill:#8BD3DA;}
	
		.st12{fill-rule:evenodd;clip-rule:evenodd;fill:#70CACB;stroke:#000000;stroke-width:0.216;stroke-linecap:round;stroke-linejoin:round;stroke-miterlimit:22.9256;}
	
		.st13{fill-rule:evenodd;clip-rule:evenodd;fill:#F05146;stroke:#000000;stroke-width:0.216;stroke-linecap:round;stroke-linejoin:round;stroke-miterlimit:22.9256;}
	
		.st14{fill-rule:evenodd;clip-rule:evenodd;fill:#FFFFFF;stroke:#000000;stroke-width:0.216;stroke-linecap:round;stroke-linejoin:round;stroke-miterlimit:22.9256;}
	.st15{fill-rule:evenodd;clip-rule:evenodd;fill:#FBAA3B;}
	.st16{fill-rule:evenodd;clip-rule:evenodd;fill:#F79239;}
	.st17{fill-rule:evenodd;clip-rule:evenodd;fill:none;}
	.st18{fill:#5AB1BB;}
	.st19{font-family:'Corbel';}
	.st20{font-size:81px;}
</style>
<path class="st0" d="M0,0h1500v1500H0V0z"/>
<path class="st1" d="M1277.8,714.2c0,291.5-236.3,527.8-527.8,527.8s-527.8-236.3-527.8-527.8c0-291.5,236.3-527.8,527.8-527.8
	S1277.8,422.7,1277.8,714.2z"/>
<path class="st2" d="M740,351.3c200.4,0,362.9,162.5,362.9,362.9S940.4,1077,740,1077S377.1,914.6,377.1,714.2
	S539.6,351.3,740,351.3z"/>
<path class="st3" d="M805,405.5h44.3"/>
<path class="st3" d="M783.2,405.5h-11.3"/>
<path class="st3" d="M615.3,297.5h107.5"/>
<path class="st3" d="M593.4,297.5h-11.3"/>
<path class="st3" d="M213.6,776.9c7.8,0,14.1,6.3,14.1,14.1c0,7.8-6.3,14.1-14.1,14.1c-7.8,0-14.1-6.3-14.1-14.1
	C199.4,783.2,205.8,776.9,213.6,776.9z"/>
<path class="st3" d="M368.7,284.9c7.8,0,14.1,6.3,14.1,14.1c0,7.8-6.3,14.1-14.1,14.1c-7.8,0-14.1-6.3-14.1-14.1
	C354.5,291.3,360.9,284.9,368.7,284.9z"/>
<path class="st3" d="M1082.4,390.1c7.8,0,14.1,6.3,14.1,14.1c0,7.8-6.3,14.1-14.1,14.1c-7.8,0-14.1-6.3-14.1-14.1
	C1068.3,396.4,1074.6,390.1,1082.4,390.1z"/>
<path class="st3" d="M326.3,560.2c0,8.6-7,15.6-15.6,15.6l0,0c-8.6,0-15.6-7-15.6-15.6l0,0c0-8.6,7-15.6,15.6-15.6l0,0
	C319.3,544.6,326.3,551.6,326.3,560.2L326.3,560.2z"/>
<path class="st3" d="M246.1,421.4v45.7"/>
<path class="st3" d="M269,444.2h-45.7"/>
<path class="st3" d="M953.6,280.8v45.7"/>
<path class="st3" d="M976.5,303.7h-45.7"/>
<path class="st3" d="M1221.1,515.1l-32.3,32.3"/>
<path class="st3" d="M1221.1,547.4l-32.3-32.3"/>
<path class="st3" d="M514.1,359.5v45.7"/>
<path class="st3" d="M536.9,382.4h-45.7"/>
<path class="st4" d="M1135.6,927.8c7.8,0,14.1,6.3,14.1,14.1c0,7.8-6.3,14.1-14.1,14.1c-7.8,0-14.1-6.3-14.1-14.1
	C1121.5,934.2,1127.8,927.8,1135.6,927.8z"/>
<path class="st4" d="M1055.2,994.7h-44.3"/>
<path class="st4" d="M1077,994.7h11.3"/>
<path class="st3" d="M1216.3,696.9c7.8,0,14.1,6.3,14.1,14.1c0,7.8-6.3,14.1-14.1,14.1s-14.1-6.3-14.1-14.1
	C1202.1,703.2,1208.4,696.9,1216.3,696.9z"/>
<path class="st5" d="M189.8,1009.9c0.4-3.8,0.9-7.8,2.6-11.3c1.7-3.4,4.4-5.7,7.5-7.1c3.2-1.5,6.3-1.4,9.6-0.9
	c2-0.3,4.1-0.5,6.1-0.7c0.3-1.2,0.6-2.3,0.9-3.4c0.9-3.7,2-7.3,3.1-10.9c1.9-6.6,3.9-13.2,5.9-19.8c4.1-13.5,8.2-27,12.4-40.4
	c0.2-0.6,0.3-1.1,0.5-1.7c-0.1-1.2,0.2-2.4,1-3.3c7.7-24.9,15.5-49.9,23.3-74.8c16.7-53.3,33.3-106.7,50.1-160
	c8.9-28.1,17.4-56.5,27.6-84.1c0.2-0.6,0.3-1.3,0.5-1.9c1.4-5,3.3-10,5.6-14.6c4.4-9,11-16.7,19.3-20.9c17-8.6,37.1-3.7,48.6,13.3
	c3,4.5,5.7,10.2,6.9,16.2c0,0,0,0,0,0.1c1.4,3.4,2.5,6.9,3.7,10.3c2.4,6.9,4.5,14,6.8,20.9c4.4,13.6,8.6,27.3,12.8,41
	c8.4,27.6,16.9,55.1,25.5,82.6c17.1,54.7,34.4,109.3,52,163.8c4.9,15.2,9.9,30.5,14.8,45.7c4.3,13.4,9.1,26.8,12.7,40.6
	c3.3,0.3,6.6,0.7,9.8,1.3c0.2,0,0.4-0.1,0.6-0.1c4-0.5,8.3-0.1,12.1,1.4c7.5,2.9,12.8,9.4,14.7,18.1c1.7,7.6,2.3,18.7-2.8,24.8
	c-2.7,3.3-6.7,4.8-10.6,5.1c-2.1,0.1-4.4-0.2-6.4-0.7c-1-0.3-2-0.6-3-1c-1,0.1-2,0.1-3,0.2c-6.3,0.4-12.6,0.7-18.9,1
	c-12.3,0.6-24.6,0.8-36.8,0.9c-24.9,0.2-49.8,0.1-74.6,0.1c-49.4,0-98.9,0-148.3,0c-13.8,0-27.6,0-41.5-0.3
	c-7.1-0.1-14.1-0.3-21.2-0.8c-5.8-0.4-11.6-0.6-17.4-1.4c-1.2,0.3-2.4,0.3-3.5,0.1c-3-0.6-5.3-2.5-7.1-5.3
	C188.2,1026.1,189,1016.7,189.8,1009.9z"/>
<path class="st6" d="M236.4,1027.6L236.4,1027.6c12.3-0.3,24.6-0.4,36.9-0.4c24.9,0,49.7,0,74.6,0c49.4,0,98.9-0.2,148.3,0.1
	c13.8,0.1,27.6,0.1,41.5,0.8c7.1,0.3,14.1,0.7,21.2,1.1c1.1,0.1,2.2,0.1,3.3,0.2c0,0,0.1-0.1,0.1-0.1c2.7-2.1,6.8-0.1,9.9-0.1
	c2,0,4.4-0.6,5.6-2.6c1.2-2.1,1.1-5.3,1.1-7.7c0-2.9-0.3-5.7-1.1-8.4c-1.5-5.5-5.3-8.8-10.1-10.1c-2.8-0.8-5.6-0.6-8.4-1
	c-1-0.1-2-0.1-2.9-0.1c-2.2,0.3-4.4,0.6-6.6,0.7c-1.6,1.4-3.9,1.8-5.5,0.3c-4.8,0.2-9.5,0.2-14.2,0.2c-11.7,0-23.4,0-35.1,0
	c-23.2,0-46.5,0.1-69.7,0c-46.6-0.3-93.2-0.6-139.9-0.8c-12.9-0.1-25.9-0.2-38.8-0.3c-9.1-0.1-18.3,0.2-27.5-0.4
	c-0.2,0.4-0.4,0.7-0.7,1c-2.2,2.1-4,1.5-6.6,1.2c-2.2-0.3-4.2-0.4-6.3,0.2c-1.4,0.4-2.8,0.7-3.9,1.8c-1.4,1.4-1.8,3.7-2.1,5.7
	c-0.9,4.8-1.5,10.2-1,15.1c0.2,1.7,0.6,3.8,1.8,5c0.4,0.5,0.9,0.7,1.4,0.9c5.3-0.7,10.6-0.9,16-1.3
	C223.8,1028,230.1,1027.7,236.4,1027.6z"/>
<path class="st6" d="M292.9,783.1c0-0.6,0.2-1.1,0.6-1.6c2-2.3,4.5-3.4,7-4.7c2.6-1.4,5.1-2.8,7.7-4.2c5.1-2.8,10.2-5.6,15.2-8.6
	c10.2-6,20.2-12.3,30.1-18.8c19.7-12.9,39-26.7,57.8-41.2c9.8-7.6,19.8-15,29.5-22.9c-1.1-3.6-2.2-7.2-3.3-10.8
	c-4.7-15.3-9.3-30.7-13.9-46.1c-2.1-7.1-4.1-14.3-6.1-21.5c-1.1,1.1-2.3,2.2-3.4,3.3c-3.1,3.1-6.3,6.1-9.5,9
	c-6.3,5.7-12.8,11.2-19.3,16.4c-13.5,10.7-27.4,20.7-41.7,29.8c-4.1,2.6-8.2,5.1-12.4,7.6c-2.4,1.4-4.9,3.2-7.5,4.6
	c-7.9,25.5-15.8,50.9-23.7,76.4l-10.9,34.9L292.9,783.1L292.9,783.1z M471.2,778.8c5.8,18.6,11.7,37.1,17.6,55.7
	c4.1,12.9,8.2,25.8,12.4,38.7c-4.7,3.5-9.3,7.3-13.9,10.8c-6.7,5.1-13.4,10.3-20.1,15.3c-24,17.8-48.8,34.3-74.2,49.4
	c-12.8,7.7-25.8,15-38.9,21.9c-6.4,3.4-12.9,6.7-19.5,9.9c-5.6,2.8-11.5,5.2-17.1,8.2c-13.5,0.1-26.9,0.1-40.4,0.2
	c-11.7,0.1-23.4,0.2-35.1,0.3c-5.8,0.1-11.7,0-17.6,0.2c0.1-0.4,0.3-0.8,0.4-1.2c1.4-3.6,2.5-7.3,3.7-10.9c2.5-7.5,4.9-15,7.4-22.6
	c4.3-13.5,8.6-27,12.8-40.5c16.3-6.5,32.3-14.3,48.1-22.1c31.6-15.7,62.5-33.3,92.4-52.8c15-9.8,29.8-20,44.4-30.7
	c7.2-5.3,14.3-10.8,21.4-16.3C460.4,788,466.2,783.8,471.2,778.8L471.2,778.8z"/>
<path class="st7" d="M410,705.3l1.4-1.1c9.8-7.6,19.8-15,29.5-22.9c-1.1-3.6-2.2-7.2-3.3-10.8c-4.7-15.3-9.3-30.7-13.9-46.1
	c-2.1-7.1-4.1-14.3-6.1-21.5c-1.1,1.1-2.3,2.2-3.4,3.3c-3.1,3.1-6.3,6.1-9.5,9c-4.9,4.4-9.8,8.7-14.9,12.8
	C397.1,652.1,404.1,678,410,705.3L410,705.3z M425.9,814.1c2.7,38.2,2.3,77.2-2.9,115.8c14.9-9.7,29.6-19.9,44.1-30.6
	c6.8-5,13.5-10.1,20.1-15.3c4.6-3.6,9.2-7.3,13.9-10.8c-4.1-12.9-8.3-25.8-12.4-38.7c-5.9-18.5-11.7-37.1-17.6-55.7l0,0
	c-5.1,4.9-10.8,9.1-16.2,13.4c-7.1,5.6-14.2,11-21.4,16.3C431,810.4,428.5,812.3,425.9,814.1z"/>
<path class="st8" d="M409.2,575.2L409.2,575.2c-4.2-6.3-10.1-11.1-16.9-13.1c-6.9-2-14.3-1.3-20.9,1.8c-6.8,3.2-12,9.1-15.6,16.3
	c-2.2,4.3-3.6,8.8-5.2,13.3c-0.8,2.5-1.7,5-2.7,7.5c-0.5,1.2-1,2.5-1.6,3.6c-0.6,1.2-1.6,2-2.3,3.1c-0.2,0.2-0.3,0.4-0.5,0.5
	c-5.4,19.4-11.5,38.6-17.4,57.9c0.6-0.3,1.1-0.6,1.7-0.9c3.6-2.1,7.1-4.2,10.6-6.4c7.1-4.4,14.2-9.1,21.1-13.9
	c13.8-9.6,27.1-20,40-30.9c3.5-3,7-6,10.6-9c2.1-1.8,4.2-3.9,6.4-5.8c-0.9-3.4-1.9-6.7-2.6-10.1c-0.5-2.3-0.8-4.5-1.1-6.8
	C411.8,579.6,410.6,577.4,409.2,575.2L409.2,575.2z M528.5,957.5L528.5,957.5c-4.5-13.6-8.9-27.2-13.3-40.8
	c-4.3-13.2-8.5-26.4-12.8-39.6c-3.3,3-6.6,5.7-10,8.5c-5.8,4.9-11.8,9.6-17.8,14.2c-12,9.3-24.1,18.2-36.5,26.8
	c-24.7,17.2-50.2,32.8-76.3,47.1c-7.4,4-14.9,8-22.4,11.8c-2,1-3.9,2-5.9,3.1c4.4,0,8.8,0,13.1-0.1c46.6-0.2,93.2-0.5,139.9-0.6
	c12.9,0,25.8,0,38.8,0c4.4,0,9-0.1,13.5,0C535.1,978,531.9,967.7,528.5,957.5L528.5,957.5z M441.7,683.9
	c9.4,30.6,18.9,61.1,28.5,91.6c-7.1,4.5-13.6,10.1-20.3,15.1c-8.1,6-16.3,12-24.5,17.8c-29,20.4-58.9,39.1-89.6,55.9
	c-15.5,8.5-31.2,16.5-47.1,24c-12.2,5.8-24.6,11-36.9,16.4c12.4-39.5,24.7-79,37-118.4l4.4-2c0.3,1,1,1.8,2.1,1.7
	c3.3-0.5,6.1-2.3,9.1-4c2.8-1.6,5.5-3.2,8.3-4.9c5.8-3.4,11.5-6.9,17.2-10.4c20.2-12.3,39.9-25.5,59.2-39.6
	c9.5-7,18.9-14.2,28.1-21.6C425.5,698.6,433.6,691.3,441.7,683.9L441.7,683.9z"/>
<path class="st9" d="M409.2,575.2L409.2,575.2c-4.2-6.3-10.1-11.1-16.9-13.1c-6.9-2-14.3-1.3-20.9,1.8c-1,0.5-1.9,1-2.8,1.5
	c6.5,17.5,13.3,36.8,19.7,57.7c3.8-3,7.5-6.1,11.2-9.3c3.5-3,7-6,10.6-9c2.1-1.8,4.2-3.9,6.4-5.8c-0.9-3.4-1.9-6.7-2.6-10.1
	c-0.5-2.3-0.8-4.5-1.1-6.8C411.8,579.6,410.6,577.4,409.2,575.2L409.2,575.2z M411,710.2c6.6,31.3,11.8,64.3,14.5,98
	c8.2-5.8,16.3-11.6,24.3-17.6c6.7-5,13.3-10.7,20.3-15.1c-9.6-30.5-19.1-61-28.5-91.6l0,0c-8.1,7.3-16.2,14.7-24.7,21.6
	C415,707.1,413,708.7,411,710.2L411,710.2z M421.9,937.8c-2.6,17-6.1,33.8-10.6,50.5c25.1-0.1,50.2-0.2,75.3-0.2
	c12.9,0,25.8,0,38.8,0c4.4,0,9-0.1,13.5,0c-3.7-10-7-20.3-10.4-30.5l0,0c-4.5-13.6-8.9-27.2-13.3-40.8c-4.3-13.2-8.5-26.4-12.8-39.6
	c-3.3,3-6.6,5.7-10,8.5c-5.8,4.9-11.8,9.6-17.8,14.2c-12,9.3-24.1,18.2-36.5,26.8C432.8,930.5,427.4,934.2,421.9,937.8z"/>
<path class="st5" d="M189.8,1009.9c0.4-3.8,0.9-7.8,2.6-11.3c1.7-3.4,4.4-5.7,7.5-7.1c3.2-1.5,6.3-1.4,9.6-0.9
	c2-0.3,4.1-0.5,6.1-0.7c0.3-1.2,0.6-2.3,0.9-3.4c0.9-3.7,2-7.3,3.1-10.9c1.9-6.6,3.9-13.2,5.9-19.8c4.1-13.5,8.2-27,12.4-40.4
	c0.2-0.6,0.3-1.1,0.5-1.7c-0.1-1.2,0.2-2.4,1-3.3c7.7-24.9,15.5-49.9,23.3-74.8c16.7-53.3,33.3-106.7,50.1-160
	c8.9-28.1,17.4-56.5,27.6-84.1c0.1-0.6,0.3-1.3,0.5-1.9c1.4-5,3.3-10,5.6-14.6c4.4-9,11-16.7,19.3-20.9c17-8.6,37.1-3.7,48.6,13.3
	c3,4.5,5.7,10.2,6.9,16.2c0,0,0,0,0,0.1c1.4,3.4,2.5,6.9,3.7,10.3c2.4,6.9,4.5,14,6.8,20.9c4.4,13.6,8.6,27.3,12.8,41
	c8.4,27.6,17,55.1,25.5,82.6c17.1,54.7,34.4,109.3,52,163.7c4.9,15.2,9.9,30.5,14.8,45.7c4.3,13.4,9.1,26.8,12.7,40.6
	c3.3,0.3,6.6,0.7,9.8,1.3c0.2,0,0.4-0.1,0.6-0.1c4-0.5,8.3-0.1,12.1,1.4c7.5,2.9,12.8,9.4,14.7,18.1c1.7,7.6,2.3,18.7-2.8,24.8
	c-2.7,3.3-6.7,4.8-10.6,5.1c-2.1,0.1-4.4-0.2-6.4-0.7c-1-0.3-2-0.6-3-1c-1,0.1-2,0.1-3,0.2c-6.3,0.4-12.6,0.7-18.9,1
	c-12.3,0.6-24.6,0.8-36.9,0.9c-24.9,0.2-49.7,0.1-74.6,0.1c-49.4,0-98.9,0-148.3,0c-13.8,0-27.6,0-41.5-0.3
	c-7.1-0.1-14.1-0.3-21.2-0.8c-5.8-0.4-11.6-0.6-17.4-1.4c-1.2,0.3-2.4,0.3-3.5,0.1c-3-0.6-5.3-2.5-7.1-5.3
	C188.2,1026.1,189,1016.7,189.8,1009.9L189.8,1009.9z M409.2,575.2L409.2,575.2c-4.2-6.3-10.1-11.1-16.9-13.1
	c-6.9-2-14.3-1.3-20.9,1.8c-6.8,3.2-12,9.1-15.6,16.3c-2.2,4.3-3.6,8.8-5.2,13.3c-0.8,2.5-1.7,5-2.7,7.5c-0.5,1.2-1,2.5-1.6,3.6
	c-0.6,1.2-1.6,2-2.3,3.1c-0.2,0.2-0.3,0.4-0.5,0.5c-5.4,19.4-11.5,38.6-17.4,57.9c0.6-0.3,1.1-0.6,1.7-0.9c3.6-2.1,7.1-4.2,10.6-6.4
	c7.1-4.4,14.2-9.1,21.1-13.9c13.8-9.6,27.1-20,40-30.9c3.5-3,7-6,10.6-9c2.1-1.8,4.2-3.9,6.4-5.8c-0.9-3.4-1.9-6.7-2.6-10.1
	c-0.5-2.3-0.8-4.5-1.1-6.8C411.8,579.6,410.6,577.4,409.2,575.2L409.2,575.2z M441.7,683.9L441.7,683.9
	c-8.1,7.3-16.2,14.7-24.7,21.5c-9.2,7.4-18.6,14.7-28.1,21.6c-19.3,14.1-39,27.3-59.2,39.6c-5.7,3.5-11.5,7-17.2,10.4
	c-2.8,1.6-5.5,3.2-8.3,4.9c-3,1.7-5.7,3.5-9.1,4c-2,0.3-2.9-3-1.6-4.4c2-2.3,4.5-3.4,7-4.7c2.6-1.4,5.1-2.8,7.7-4.2
	c5.1-2.8,10.2-5.6,15.2-8.6c10.2-6,20.2-12.3,30.1-18.8c19.7-12.9,39-26.7,57.8-41.2c9.8-7.6,19.8-15,29.5-22.9
	c-1.1-3.6-2.2-7.2-3.3-10.8c-4.7-15.3-9.3-30.7-13.9-46.1c-2.1-7.1-4.1-14.3-6.1-21.5c-1.1,1.1-2.3,2.2-3.4,3.3
	c-3.1,3.1-6.3,6.1-9.5,9c-6.3,5.7-12.8,11.2-19.3,16.4c-13.5,10.7-27.4,20.7-41.7,29.8c-4.1,2.6-8.2,5.1-12.4,7.6
	c-2.4,1.4-4.9,3.2-7.5,4.6c-7.9,25.5-15.8,50.9-23.7,76.4c-16.1,51.6-32.1,103.2-48.3,154.8c12.4-5.3,24.7-10.6,36.9-16.4
	c15.9-7.5,31.6-15.6,47.1-24c30.7-16.8,60.7-35.4,89.6-55.9c8.2-5.8,16.4-11.7,24.5-17.8c6.7-5,13.3-10.7,20.3-15.1
	C460.6,745,451.1,714.5,441.7,683.9L441.7,683.9z M471.2,778.8L471.2,778.8c-5.1,4.9-10.8,9.1-16.2,13.4c-7.1,5.6-14.2,11-21.4,16.3
	c-14.5,10.7-29.3,20.9-44.4,30.7c-29.9,19.5-60.8,37.1-92.4,52.8c-15.8,7.8-31.8,15.6-48.1,22.1c-4.3,13.5-8.5,27-12.8,40.5
	c-2.4,7.5-4.9,15.1-7.4,22.6c-1.2,3.6-2.3,7.3-3.7,10.9c-0.1,0.4-0.3,0.8-0.4,1.2c5.9-0.2,11.7-0.1,17.6-0.2
	c11.7-0.1,23.4-0.3,35.1-0.3c13.5-0.1,26.9-0.1,40.4-0.2c5.6-3,11.5-5.4,17.1-8.2c6.5-3.2,13-6.5,19.4-9.9
	c13.1-6.9,26.1-14.2,39-21.9c25.4-15.2,50.2-31.7,74.2-49.4c6.8-5,13.4-10.1,20.1-15.3c4.6-3.6,9.2-7.3,13.9-10.8
	c-4.1-12.9-8.3-25.8-12.4-38.7C482.9,815.9,477.1,797.4,471.2,778.8L471.2,778.8z M528.5,957.5L528.5,957.5
	c-4.5-13.6-8.9-27.2-13.3-40.8c-4.3-13.2-8.5-26.4-12.8-39.6c-3.3,3-6.6,5.7-10,8.5c-5.8,4.9-11.8,9.6-17.8,14.2
	c-12,9.3-24.1,18.2-36.5,26.8c-24.7,17.2-50.2,32.8-76.3,47.1c-7.4,4-14.9,8-22.4,11.8c-2,1-3.9,2-5.9,3.1c4.4,0,8.8,0,13.1-0.1
	c46.6-0.2,93.2-0.5,139.9-0.6c12.9,0,25.8,0,38.8,0c4.4,0,9-0.1,13.5,0C535.1,978,531.9,967.7,528.5,957.5L528.5,957.5z
	 M236.4,1027.6L236.4,1027.6c12.3-0.3,24.6-0.4,36.9-0.4c24.9,0,49.8,0,74.6,0c49.4,0,98.9-0.2,148.3,0.1
	c13.8,0.1,27.6,0.1,41.5,0.8c7.1,0.3,14.1,0.7,21.2,1.1c1.1,0.1,2.2,0.1,3.3,0.2c0,0,0.1-0.1,0.1-0.1c2.7-2,6.8-0.1,9.9-0.1
	c2,0,4.4-0.6,5.6-2.6c1.2-2.1,1.1-5.3,1.1-7.7c0-2.9-0.3-5.7-1.1-8.4c-1.5-5.5-5.3-8.8-10.2-10.1c-2.8-0.8-5.6-0.6-8.4-1
	c-1-0.1-2-0.1-3-0.1c-2.2,0.3-4.4,0.6-6.6,0.7c-1.6,1.4-3.9,1.8-5.5,0.3c-4.8,0.2-9.5,0.2-14.2,0.2c-11.7,0-23.4,0-35.1,0
	c-23.2,0-46.5,0.1-69.7,0c-46.6-0.3-93.2-0.6-139.9-0.8c-12.9-0.1-25.9-0.2-38.8-0.3c-9.1-0.1-18.3,0.2-27.5-0.4
	c-0.2,0.4-0.4,0.7-0.7,1c-2.2,2.1-4,1.5-6.6,1.2c-2.2-0.3-4.2-0.4-6.3,0.2c-1.4,0.4-2.8,0.7-3.9,1.8c-1.4,1.4-1.8,3.7-2.1,5.7
	c-0.9,4.8-1.5,10.2-1,15.1c0.2,1.7,0.6,3.8,1.8,5c0.4,0.5,0.9,0.7,1.4,0.8c5.3-0.7,10.6-0.9,16-1.3
	C223.8,1028,230.1,1027.7,236.4,1027.6z"/>
<path class="st5" d="M568.4,1018.1c0.5-0.5,1-0.9,1.6-1.4c0.6-0.5,1.3-0.9,1.9-1.4c0.7-0.5,1.6-0.2,2.1,0.5c0.5,0.8,0.4,1.7-0.1,2.4
	c-0.4,0.6-0.7,1.3-1.1,1.9c-0.4,0.6-0.8,1.2-1.3,1.7c-0.9,1.1-1.9,2.2-3,3c-1.8,1.2-4.1-1.2-2.9-3.3
	C566.2,1020.2,567.3,1019.1,568.4,1018.1z"/>
<path class="st5" d="M558.6,1013.4c3.6-3,7.2-6.1,10.9-9.1c2.3-1.9,5.4,2.5,3.1,4.5c-3.5,3.2-7,6.4-10.5,9.6
	c-2.7,2.5-6.6,7.1-10.3,6.4c-0.6-0.1-1.3-1-1.2-1.8C550.9,1018.8,555.9,1015.7,558.6,1013.4z"/>
<path class="st5" d="M542.6,1012.3c3.5-3,7-5.7,10.8-8.2c2.3-1.6,4.3,2.4,2.1,4.1c-3.6,2.7-7,5.5-10.3,8.6c-2.6,2.4-5.8,6.9-9.3,7.2
	c-1,0.1-1.5-1.1-1.4-2.1C535,1017.9,539.9,1014.6,542.6,1012.3z"/>
<path class="st5" d="M523.4,1014.9c3.3-2.6,6.7-5,10-7.5c1.8-1.3,4.1,1.9,2.4,3.5c-3,2.8-6,5.6-9.1,8.3c-2.6,2.3-6,6.3-9.5,6.2
	c-1,0-1.8-1.1-1.5-2.2C516.6,1019.4,520.8,1017,523.4,1014.9z"/>
<path class="st5" d="M505.7,1013.6c3-2.1,5.9-4.3,8.9-6.4c2.5-1.8,4.7,2.6,2.3,4.4c-2.9,2.2-5.8,4.4-8.8,6.6c-2.4,1.8-5,4.5-8.1,4
	c-0.7-0.1-1.1-1.2-1-1.9C499.9,1017.1,503.4,1015.3,505.7,1013.6z"/>
<path class="st5" d="M485.6,1013.1c2.6-1.9,5.3-3.8,8.1-5.4c2.2-1.2,5,2.2,2.8,4.1c-2.5,2.2-5.2,4.3-7.9,6.2c-2.3,1.6-5,3.9-7.8,3.5
	c-0.8-0.1-1.3-1.3-1.1-2.1C480.5,1016.4,483.5,1014.7,485.6,1013.1z"/>
<path class="st5" d="M463.5,1017.2c2.9-1.4,5.7-2.8,8.6-4.2c2.4-1.1,4.4,2.7,2.1,4c-2.9,1.6-5.8,3.2-8.8,4.7c-2.3,1.2-5.4,3.6-8,2.7
	c-1-0.3-1.2-1.4-0.9-2.4C457.6,1019.4,461.2,1018.3,463.5,1017.2z"/>
<path class="st5" d="M440.8,1016.2c1.8-0.9,3.4-1.8,5.2-2.5c2.9-1.1,4.1,4.1,1.3,5.1c-1.8,0.7-3.5,1-5.3,1.5
	c-1.5,0.4-3.2,1.2-4.7,0.7c-0.6-0.2-1.1-1.2-0.7-1.9C437.5,1017.4,439.2,1016.9,440.8,1016.2z"/>
<path class="st5" d="M420.6,1012.9c1.3-0.4,2.8,0.5,3.1,2c0.3,1.5-0.4,3.2-1.8,3.5c-1.8,0.5-3.6,0.8-5.3-0.1c-1.1-0.6-0.9-2.1-0.3-3
	C417.3,1013.9,419.1,1013.3,420.6,1012.9z"/>
<path class="st5" d="M528.6,975c-1.8,1.6-4.1,3.1-6.4,3.8c-2.1,0.6-3-2.4-1.4-3.8c1.9-1.5,4.4-2.5,6.6-3.1
	C529.1,971.5,529.9,973.9,528.6,975z"/>
<path class="st5" d="M522.4,961.5c-3.3,2.6-6.7,5.1-10.1,7.6c-1.6,1.2-3.2,2.4-5,3.4c-1.8,1-2.8,1.3-4.8,0.8c-0.7-0.2-1-1-0.9-1.7
	c0.9-4.1,4.7-6,7.7-7.9c3.5-2.3,7-4.5,10.5-6.7C522.7,955.1,524.9,959.5,522.4,961.5z"/>
<path class="st5" d="M513.2,950.6c-3.3,1.8-6.3,3.9-9.3,6.3c-1.5,1.2-5.7,5.8-7.3,2.4c-1.5-3.1,3.4-6.4,5-7.8c3-2.4,6.4-4.1,9.8-5.6
	C513.9,944.8,515.6,949.3,513.2,950.6z"/>
<path class="st5" d="M509.2,929.9c-2.4,2-4.7,3.9-7.1,5.9c-1.9,1.6-4.2,4.2-6.8,3.9c-0.9-0.1-1.5-0.9-1.3-2c0.5-2.9,3.4-4.5,5.4-6.1
	c2.5-2,5-4,7.5-6C509.3,923.7,511.5,928,509.2,929.9z"/>
<path class="st5" d="M503.6,914.1c-0.9,0.8-1.9,1.7-2.8,2.5c-1,0.9-1.9,1.9-3.1,2.4c-0.8,0.4-1.8,0.4-2.5-0.4
	c-0.6-0.7-0.8-2-0.3-2.8c1.4-2.2,3.5-3.9,5.3-5.6c1-0.9,2.4-1.1,3.3,0C504.5,911.2,504.6,913.2,503.6,914.1z"/>
<path class="st5" d="M498.1,904.1c-0.4,0.1-0.8,0.1-1.1-0.1c-0.4-0.2-0.7-0.5-0.9-0.9c-0.1-0.1-0.1-0.4-0.2-0.5
	c-0.2-0.7,0-1.6,0.5-2.1c0,0,0,0,0-0.1c0,0,0,0,0-0.1c0.1-0.2,0.2-0.3,0.3-0.5c0.1-0.1,0.3-0.3,0.4-0.4c0.3-0.2,0.7-0.3,1.1-0.3
	c0.9,0,1.6,0.6,2,1.5c0.3,0.8,0.2,1.7-0.3,2.4C499.6,903.9,498.9,904.2,498.1,904.1z"/>
<path class="st5" d="M463.7,771.1c-1.9,1.7-3.8,3.7-6.1,4.7c-0.7,0.3-1.6-0.2-1.9-0.9c-0.4-0.8-0.2-1.7,0.3-2.3
	c1.4-2,3.6-3.4,5.5-4.8C463.2,766.6,465.3,769.6,463.7,771.1z"/>
<path class="st5" d="M457,757.8c-2,2-4.1,3.9-6.1,5.9c-1.4,1.3-4,4.1-5.8,1.9c-1.7-2,0.6-4.5,1.9-5.8c2.2-2,4.3-4,6.5-6
	C456,751.5,459.5,755.5,457,757.8z"/>
<path class="st5" d="M451.6,734.5c-2.4,2.3-4.7,4.7-7.1,7c-1.8,1.8-4.1,5-6.7,4.6c-0.7-0.1-1.3-0.6-1.3-1.5c0-3.1,2.9-5,4.8-6.9
	c2.4-2.3,4.8-4.7,7.1-7C450.6,728.6,453.9,732.2,451.6,734.5z"/>
<path class="st5" d="M446.1,715.6c-1.6,1.4-3.1,2.9-4.8,4.2c-1.3,1.1-2.9,2.7-4.7,2.2c-0.5-0.1-0.8-0.7-0.8-1.2c0-2,1.6-3.3,2.7-4.5
	c1.4-1.5,3-2.8,4.5-4.2C445.2,710.1,448.3,713.7,446.1,715.6z"/>
<path class="st5" d="M408.7,598.8c-2.2,1.3-4.8,3.5-7.3,3.5c-2.1,0-2.9-2.8-1.6-4.4c0.9-1.2,2.3-1.7,3.5-2.2
	c1.2-0.5,2.4-1.1,3.6-1.6C409.3,592.9,411,597.4,408.7,598.8z"/>
<path class="st5" d="M404.2,587.6c-3.3,1.4-6.6,3.4-10.2,3.7c-2.8,0.3-3.3-4.1-1.3-5.6c2.9-2.1,6.8-3,10-4.2
	C406.2,580.3,407.5,586.1,404.2,587.6z"/>
<path class="st5" d="M394.2,573.2c-0.5,0.2-1,0.4-1.5,0.6c-0.3,0.1-0.6,0.2-1,0.2c-0.3,0.1-0.6,0.1-0.8,0c0,0-0.1,0-0.2,0
	c-1,0.1-2-0.8-2.4-1.8c-0.4-1.1-0.2-2.3,0.5-3.2c0,0,0,0,0,0c0.1-0.2,0.3-0.4,0.4-0.6c0.3-0.4,0.7-0.7,1.1-0.9
	c0.4-0.3,0.9-0.6,1.4-0.9c1.7-1.1,3.8-0.3,4.5,1.7c0.3,0.9,0.3,1.9,0,2.8C395.9,572.2,395.2,572.8,394.2,573.2z"/>
<path class="st5" d="M1095.8,743.8c0-55.8,0.1-111.6-0.1-167.4c0-15.7,0.2-31.4-0.2-47.1c-0.1-3.9-0.2-7.7-0.5-11.5
	c-0.2-1.9,0-3.9-0.2-5.8c-0.2-2-1-3.8-1.2-5.8c-0.3-3.5-0.7-7-1-10.5c0.1-2.4,0.1-4.8,0.2-7.2c0.1-4,0.6-8.1,0-12.1
	c-1.1-7.7-7-11.8-14.3-12.7c-6.6-0.8-13.4-0.6-20.1-0.5c-40.4-3.1-80.7-2.7-121.2-2.7c-41.5,0-82.9,0-124.4,0
	c-82.9,0-165.8-0.4-248.7,0.2c-23.3,0.2-46.5,0.2-69.8,0.5c-11.2,0.1-22.4,0.2-33.6,0.5c-1.4-0.2-2.9-0.3-4.3-0.4
	c-8.2-0.5-16.6-0.3-24.8,0.6c-7.3,0.8-14.9,2.6-19.9,8.5c-4.5,5.3-5.9,12.3-6,19.1c-0.1,4.2,0.2,8.3,0.4,12.5c0,0.1,0,0.2,0,0.3
	c0,0.4-0.1,0.7-0.1,1.1c-0.5,6.7-0.9,13.5-1.1,20.2c-0.5,13.5-0.6,26.9-0.6,40.4c0,27.2,0,54.5,0,81.7c0,54.5,0.4,109,1.2,163.4
	c0.2,15.4,0.3,30.8,1.5,46.2c0.1,1.1,0.2,2.1,0.2,3.2c-0.3,2-0.5,4-0.6,6.1c-0.3,4.5-0.6,9-0.7,13.5c-0.3,9.1-0.3,18.2-0.2,27.4
	c0,4.1-0.4,8.6,0.8,12.5c1.2,3.9,3.9,6.4,7.6,7.9c3.1,1.3,6.6,1.6,9.9,1.5c3.5-0.1,7.1-0.2,10.6-0.3c3.6,0.8,7.2,1.3,11.1,1.5
	c5.5,0.3,11.1,0.3,16.6,0.3c10.2,0.1,20.5,0,30.7,0c20.9,0,41.8,0,62.7,0c19.5,0,39.1,0,58.6,0c-1,2.5-2.1,5-3.2,7.5
	c-2.5,5.7-5,11.3-7.6,16.9c-2.5,5.5-5.1,10.9-7.7,16.3c-1.4,2.9-2.6,5.8-3.8,8.8c-0.2,0.6-0.5,1.2-0.7,1.8c-0.7,0-1.4,0.1-2.1,0.1
	c-2.2,0.1-4.4,0.3-6.5,0.4c-0.6-0.1-1.3-0.1-1.9-0.2c-4.6-0.4-9.4-1.1-14-0.3c-8.7,1.5-13.9,9.8-15.3,17.9
	c-0.8,4.7-0.9,9.4-1.1,14.1c-0.2,4.7-0.6,9.5-0.5,14.3c0.1,4.5,1.7,9.1,5.8,11.4c3.4,1.9,7.4,2,11.2,1.6c2.8-0.3,5.7-0.6,8.5-1
	c1.7,0,3.4,0,5,0c5.8,0.2,11.5,0.2,17.3,0.2c11.9,0,23.7,0,35.6,0c23.7,0,47.5,0,71.2,0c47.5,0,94.9,0,142.4,0
	c13.1,0,26.3-0.1,39.4-0.3c13.4-0.2,27.1,0.2,40.3-2.2c0.8-0.1,1.4-0.6,1.8-1.1c0.8-0.4,1.6-0.9,2.2-1.3c6.4-5.3,6.7-14.8,6.8-22.4
	c0.1-4.5-0.1-9.1-0.6-13.6c-0.5-4.4-0.9-9-3-13c-4.2-8.1-13.5-7.6-21.2-7.1c-4,0.3-8.1,0.5-12.2,0.8c-0.9-3.3-2.6-6.6-3.7-9.3
	c-2.1-5-4.3-9.9-6.4-14.9c-2.1-4.9-4.1-9.8-6.2-14.8c-1.1-2.6-2.2-5.2-3.2-7.8c-0.4-0.9-0.7-1.9-1.1-2.8c17.4-0.1,34.7-0.1,52-0.3
	c23.5-0.2,46.9-0.3,70.4-0.6c21.8-0.2,43.7,0.3,65.3-2c6.9-0.1,14.3-0.8,19.7-5.5c1.6-1.4,2.8-3.1,3.8-4.9c1.3-0.3,2.5-1.5,2.7-3.4
	c0.9-7,1-14.1,1.2-21.2c0.3-7.1,0.5-14.1,0.6-21.2c0.3-13.9,0.2-27.9,0.2-41.9C1095.8,799.9,1095.8,771.9,1095.8,743.8z"/>
<path class="st8" d="M1062.9,919.1L1062.9,919.1c-1.1,0.1-2.2,0.2-3.3,0.2c-16.5-1.2-33.2-1.1-49.8-1.3c-20.9-0.2-41.8-0.4-62.7-0.5
	c-41.8-0.3-83.6-0.3-125.4-0.3c-83.6,0-167.2,0-250.7,0c-23.5,0-46.9,0-70.4,0c-11.1,0-22.2,0-33.3,0c-1.6-1-3.4-1.3-5.3-1.4
	c0.7-0.5,1.2-1.4,0.9-2.4c-1.1-3.6-5.6-5.6-8.6-7.5c-3.5-2.2-7-4.5-10.5-6.7c-7-4.5-14.2-8.6-21.4-12.8c-2.2-1.3-3.9,1.9-2,3.4
	c6.6,4.9,13.1,9.8,19.9,14.5c3.3,2.3,6.6,4.5,9.9,6.8c2.1,1.4,4.8,3.8,7.5,4.8c-0.4,0-0.8,0-1.2,0c-4.3,0.1-8.6,0.4-12.9,0.6
	c-7.8,0.4-15.6,1.4-23.4,1.6c-2.3,0.1-4.8-0.1-5.7-2.5c-1.2-3.3-0.6-7.8-0.6-11.3c-0.1-8.3-0.3-16.7-0.8-25c-0.2-3.7-0.5-7.4-0.8-11
	c0.9-16.2,1.9-32.4,2.1-48.7c0.4-27.2,0.6-54.5,0.8-81.7c0.4-54.5,0.6-109,0.6-163.4c0-15.4,0.1-30.8-0.4-46.1
	c-0.3-7.7-0.6-15.4-1.2-23.1c-0.1-1.9-0.2-3.9-0.4-5.8c-0.1-0.5-0.1-1.1-0.2-1.6c0-2.6,0.1-5.2,0.4-7.8c1-6.5,3.7-13.6,10.3-16
	c3.8-1.4,8-1.7,12-1.9c4.7-0.3,9.4-0.3,14.1-0.5c5-0.1,10-0.2,15-0.3c2.5-0.1,5-0.2,7.5-0.1c1.3,0,2.7,0.1,3.9-0.1
	c3.3,0,6.7,0,10,0.1c20.7,0.3,41.5,0.3,62.2,0.5c41.5,0.3,82.9,0.2,124.4,0.2c82.9,0,165.8,0,248.7,0c35.2,0,70.4,0.5,105.5-0.9
	c0.9,0.3,1.8,0.6,2.8,0.7c2,0.2,4.1,0.3,6.2,0.4c4.1,0.1,8.2,0.1,12.3,0.1c7.9,0,15.8,0,23.7,0c4.9,0,11.9-0.3,13.1,5.7
	c0.7,3.4,0.4,7.2,0.5,10.7c0.1,3.9,0.2,7.9,0.3,11.8c0.1,1.9,0.1,3.8,0.2,5.8c-0.4,2.6-1.1,5.2-1.1,7.8c-0.1,3.5-0.4,7-0.5,10.6
	c-0.5,13.9-0.3,27.9-0.4,41.8c-0.1,28.1-0.1,56.1-0.1,84.2c-0.1,55.8,0,111.6,0,167.4c0,15.7-0.3,31.4,0.1,47.1
	c0.2,7.7,0.4,15.4,0.7,23.1c0.2,4.8,0.2,9.6,0.5,14.4c-0.2,4.3-1.1,8.3-4.2,11.7C1077.1,918.8,1068.7,918.6,1062.9,919.1z"/>
<path class="st10" d="M1057.2,858.7c1.6-0.1,2.3-1.4,2.1-2.6c0.6-0.1,1.1-0.6,1.1-1.4c0.2-2.9,0.7-5.8,0.8-8.6
	c0.1-2.9,0.1-5.8,0.1-8.6c0.1-5.8,0.2-11.5,0.2-17.3c0.1-11.5,0.2-23.1,0.4-34.6c0.3-23.1,0.4-46.1,0.4-69.2
	c0-46.1,0.1-92.2,0-138.3c0-12.8,0-25.6-0.2-38.4c-0.1-6.6-0.2-13.1-0.4-19.7c-0.1-2.6-0.1-5.2-0.2-7.8c0.2-1.2,0.3-2.5,0.4-3.5
	c0.1-2.5,0.2-5.5-0.9-7.9c-1-2.3-2.9-3.6-5.4-3.9c-1.1-0.1-2.2-0.1-3.2,0.1c-0.6,0.1-1.1,0.2-1.7,0.4c-18.9-1.1-38-0.5-57-0.5
	c-19.2,0-38.4-0.4-57.6-0.5c-38.4-0.2-76.8-0.6-115.3-0.6c-76.4,0-152.9,0-229.3,0.1c-21.6,0-43.1,0-64.7,0.3
	c-10.6,0.1-21.2,0.3-31.8,0.4c-0.2,0-0.4,0-0.7,0c-0.1-0.1-0.3-0.3-0.5-0.4c-2.9-1.3-6.2-1.4-9.4-1.5c-3.4-0.1-6.9,0-10.3,0.1
	c-6.8,0.1-13.6,0-20.4,0.3c-4.9,0.2-12.8,0.5-14,6.5c-0.2,1.1-0.2,2.3-0.2,3.5c-1.6,22.1-1,44.5-1.2,66.7
	c-0.1,22.8-0.3,45.5-0.3,68.3c-0.1,45.7-0.1,91.3-0.1,137c0,12.8,0,25.6,0,38.5c0,9.7,0,19.4,0.4,29.1c-0.8,2.8-1.2,5.6,0.2,8.4
	c0.1,0.3,0.3,0.5,0.4,0.8c0,0.1,0,0.1,0,0.2c0.1,1,0.8,1.5,1.5,1.6c2.1,1.8,5.1,2.4,8,2.6c5.1,0.4,10.3,0.3,15.4,0.2
	c8.1,1,16.2,0.8,24.3,0.9c9.5,0.1,19.1,0.1,28.6,0.1c19.5,0,38.9,0,58.4,0.1c38.9,0,77.9,0.1,116.8,0.1
	c77.9,0.1,155.8,0.6,233.6,0.4c21.9-0.1,43.7-0.1,65.6-0.2C1013.4,859.5,1035.4,860.2,1057.2,858.7z"/>
<path class="st11" d="M1057.2,858.7c1.6-0.1,2.3-1.4,2.1-2.6c0.6-0.1,1.1-0.6,1.1-1.4c0.2-2.9,0.7-5.8,0.8-8.6
	c0.1-2.9,0.1-5.8,0.1-8.6c0.1-5.8,0.2-11.5,0.2-17.3c0.1-11.5,0.2-23.1,0.4-34.6c0.3-23.1,0.4-46.1,0.4-69.2
	c0-38.7,0.1-77.4,0-116.2c-99.2,82.9-287.7,193.1-624.1,251.3c0.1,0.5,0.3,0.9,0.5,1.4c0.1,0.3,0.3,0.5,0.4,0.8c0,0.1,0,0.1,0,0.2
	c0.1,1,0.8,1.5,1.5,1.6c2.1,1.8,5.1,2.4,8,2.6c5.1,0.4,10.3,0.3,15.4,0.2c8.1,1,16.2,0.8,24.3,0.9c9.5,0.1,19.1,0.1,28.6,0.1
	c19.5,0,38.9,0,58.4,0.1c38.9,0,77.9,0.1,116.8,0.1c77.9,0.1,155.8,0.6,233.6,0.4c21.9-0.1,43.7-0.1,65.6-0.2
	C1013.4,859.5,1035.4,860.2,1057.2,858.7z"/>
<path class="st12" d="M759.2,885.4L759.2,885.4c-4.1,14.7-26,21.6-34.9,7.2c-3.5-5.5-2.7-13.2,1.5-18.1c3.1-0.9,5.9-2.5,9.1-3.2
	c3.5-0.8,7.2-0.9,10.7-0.2C752.5,872.5,761.5,876.9,759.2,885.4z"/>
<path class="st13" d="M752.2,867.1c-4.9-1.9-10.4-2.5-15.6-1.8c-5.2,0.7-11.2,2.2-14.2,6.9c-0.4,0.7-0.3,1.4,0.1,1.9
	c-3.6,4.5-4.8,10.6-3.2,16.3c2.5,8.7,11.8,14.8,20.7,14.7c9.5-0.1,18.4-6.2,23-14.4c2.5-4.4,3.3-9.9,1-14.5
	C761.6,871.7,756.7,868.9,752.2,867.1z"/>
<path class="st12" d="M869.1,929.5L869.1,929.5c-4-0.2-8.1-0.4-12.1-0.6c4,0,8,0,11.9,0C868.9,929,869,929.3,869.1,929.5z"/>
<path class="st14" d="M881.2,958L881.2,958c2.1,4.9,4.3,9.8,6.5,14.6c0.9,1.9,1.8,4.2,2.9,6.4c-2.5,0-5-0.1-7.5-0.1
	c-11.2,0-22.4,0-33.7,0c-22.6,0-45.2,0-67.8,0c-45.2,0-90.4,0-135.6,0.2c-12.5,0.1-25,0.2-37.5,0.4c-2.2,0-4.4,0.1-6.6,0.1
	c0.9-1.6,1.7-3.2,2.5-4.7c2.9-5.6,5.7-11.3,8.4-17c2.2-4.7,4.3-9.4,6.4-14.2c14.9,2.2,30.2,2,45.2,2.3c16.5,0.4,33,0.7,49.5,0.7
	c33,0,66,0,99-0.3c18.5-0.2,37.3,0.2,55.7-1.7c1.9,0.3,3.6-1.8,3.6-3.6c0-0.2,0-0.4-0.1-0.6c0.5-0.2,1-0.5,1.4-0.8
	c0.4,1,0.8,1.9,1.2,2.9C876.7,947.7,878.9,952.9,881.2,958z"/>
<path class="st14" d="M923.4,989.5L923.4,989.5c0.9,1.2,1.1,2.9,1.4,4.4c1.5,8.3,1.9,17.3,1,25.6c-0.3,2.9-1.1,6.1-3.2,8.1
	c-0.6,0.6-1.2,1-1.8,1.3c-9.8-1.2-19.9-1.1-29.7-1.2c-11.9-0.2-23.7-0.4-35.6-0.4c-23.7,0-47.5,0-71.2,0c-47.5,0-94.9,0-142.4,0
	c-13.1,0-26.3,0-39.4,0c-1.8,0-3.6,0-5.4,0c-5.5-1.5-11.5-0.7-17.2,0.2c-2.4,0.1-4.8,0.2-7.2,0.3c-2,0.1-3.8,0.6-5.5,1.4
	c-1.2,0.1-2.4,0.2-3.6,0.2c-2.1,0-3.3,0-3.6-2.3c-0.4-3.8,0.1-7.9,0.2-11.7c0.1-4.1,0.1-8.2,0.4-12.3c0.4-5.2,2-12.3,7.9-13.8
	c4-1,8.6-0.4,12.7-0.5c0.9,0,1.8,0,2.6-0.1c1.1,0.1,2.3,0.2,3.4,0.2c5.6,0.4,11.2,0.5,16.8,0.7c11.2,0.3,22.5,0.3,33.7,0.4
	c22.6,0.1,45.2,0.2,67.8,0.2c45.2,0,90.4,0,135.6,0c12.5,0,25,0,37.5,0c11,0,21.9,0,32.8-1.5c3.2-0.2,6.6-0.6,9.7-0.1
	C921.8,988.7,923.2,989.2,923.4,989.5z"/>
<path class="st5" d="M1095.8,743.8c0-55.8,0.1-111.6-0.1-167.4c-0.1-15.7,0.1-31.4-0.3-47.1c-0.1-3.9-0.2-7.7-0.5-11.5
	c-0.2-1.9,0-3.9-0.2-5.8c-0.2-2-1-3.8-1.2-5.8c-0.3-3.5-0.7-7-1-10.5c0.1-2.4,0.1-4.8,0.2-7.2c0.1-4,0.6-8.1,0-12.1
	c-1.1-7.7-7-11.8-14.3-12.7c-6.6-0.8-13.4-0.6-20.1-0.5c-40.4-3.1-80.7-2.7-121.2-2.7c-41.5,0-82.9,0-124.4,0
	c-82.9,0-165.8-0.4-248.7,0.1c-23.3,0.2-46.5,0.2-69.8,0.5c-11.2,0.1-22.4,0.2-33.6,0.5c-1.4-0.2-2.9-0.3-4.3-0.4
	c-8.2-0.5-16.6-0.3-24.8,0.6c-7.3,0.8-14.9,2.6-19.9,8.5c-4.5,5.3-5.9,12.3-6,19.1c-0.1,4.2,0.2,8.3,0.4,12.5c0,0.1,0,0.2,0,0.3
	c0,0.4-0.1,0.7-0.1,1.1c-0.5,6.7-0.9,13.5-1.1,20.2c-0.5,13.5-0.6,26.9-0.6,40.4c0,27.2,0,54.5,0,81.7c0,54.5,0.4,109,1.2,163.4
	c0.2,15.4,0.3,30.8,1.5,46.2c0.1,1.1,0.2,2.1,0.2,3.2c-0.3,2-0.5,4-0.6,6.1c-0.3,4.5-0.6,9-0.7,13.5c-0.3,9.1-0.3,18.2-0.2,27.4
	c0,4-0.4,8.6,0.8,12.5c1.2,3.9,3.9,6.4,7.6,7.9c3.1,1.3,6.6,1.6,9.9,1.5c3.5-0.1,7.1-0.2,10.6-0.3c3.6,0.8,7.2,1.3,11.1,1.5
	c5.5,0.3,11.1,0.3,16.6,0.3c10.2,0.1,20.5,0,30.7,0c20.9,0,41.8,0,62.7,0c19.5,0,39.1,0,58.6,0c-1,2.5-2.1,5-3.2,7.5
	c-2.5,5.7-5,11.3-7.6,16.9c-2.5,5.5-5.1,10.9-7.7,16.3c-1.4,2.9-2.6,5.8-3.8,8.8c-0.2,0.6-0.5,1.2-0.7,1.8c-0.7,0-1.4,0.1-2.1,0.1
	c-2.2,0.1-4.4,0.3-6.5,0.4c-0.6-0.1-1.3-0.1-1.9-0.2c-4.6-0.4-9.3-1.1-14-0.3c-8.7,1.5-13.9,9.8-15.3,17.9
	c-0.8,4.7-0.9,9.4-1.1,14.1c-0.2,4.7-0.6,9.5-0.5,14.3c0.1,4.5,1.7,9.1,5.8,11.4c3.4,1.9,7.4,2,11.2,1.6c2.8-0.3,5.7-0.6,8.5-1
	c1.7,0,3.4,0,5,0c5.8,0.2,11.5,0.2,17.3,0.2c11.9,0,23.7,0,35.6,0c23.7,0,47.5,0,71.2,0c47.5,0,94.9,0,142.4,0
	c13.1,0,26.3-0.1,39.4-0.3c13.4-0.2,27.1,0.2,40.3-2.2c0.8-0.1,1.4-0.6,1.8-1.1c0.8-0.4,1.6-0.8,2.2-1.3c6.4-5.3,6.7-14.8,6.8-22.4
	c0.1-4.5-0.1-9.1-0.6-13.6c-0.5-4.4-0.9-9-3-13c-4.2-8.1-13.5-7.6-21.2-7.1c-4,0.3-8.1,0.5-12.2,0.8c-0.9-3.3-2.6-6.6-3.7-9.3
	c-2.1-5-4.3-9.9-6.4-14.9c-2.1-4.9-4.1-9.8-6.2-14.8c-1.1-2.6-2.2-5.2-3.2-7.8c-0.4-0.9-0.7-1.8-1.1-2.8c17.3-0.1,34.7-0.1,52-0.3
	c23.5-0.2,46.9-0.3,70.4-0.6c21.8-0.2,43.7,0.3,65.3-2c6.9-0.1,14.3-0.8,19.7-5.5c1.6-1.4,2.8-3.1,3.8-4.9c1.3-0.3,2.5-1.5,2.7-3.4
	c0.9-7,1-14.1,1.2-21.2c0.3-7.1,0.5-14.1,0.6-21.2c0.3-13.9,0.2-27.9,0.2-41.9C1095.8,799.9,1095.8,771.9,1095.8,743.8L1095.8,743.8
	z M636.8,937L636.8,937c0.1,0,0.3,0,0.4,0C637.1,937,636.9,937,636.8,937C636.8,937,636.8,937,636.8,937L636.8,937z M673.1,935.8
	L673.1,935.8c1.5,0,3.1,0,4.6-0.1c0.2,0,0.3,0,0.5,0c0.1,0,0.3,0,0.4,0c-2.7,0.1-5.4,0.1-8.1,0.2c-4.2,0.1-8.4,0.2-12.5,0.3
	C663,936.1,668,935.9,673.1,935.8L673.1,935.8z M923.4,989.5L923.4,989.5c0.9,1.2,1.1,2.9,1.4,4.4c1.5,8.3,1.9,17.3,1,25.6
	c-0.3,2.9-1.1,6.1-3.2,8.1c-0.6,0.6-1.2,1-1.8,1.3c-9.8-1.2-19.9-1.1-29.7-1.2c-11.9-0.2-23.7-0.4-35.6-0.4c-23.7,0-47.5,0-71.2,0
	c-47.5,0-94.9,0-142.4,0c-13.1,0-26.3,0-39.4,0c-1.8,0-3.6,0-5.4,0c-5.5-1.5-11.5-0.7-17.2,0.2c-2.4,0.1-4.8,0.2-7.2,0.3
	c-2,0.1-3.8,0.6-5.5,1.4c-1.2,0.1-2.4,0.2-3.6,0.2c-2.1,0-3.3,0-3.6-2.3c-0.4-3.8,0.1-7.9,0.2-11.7c0.1-4.1,0.1-8.2,0.4-12.3
	c0.4-5.2,2-12.3,7.9-13.8c4-1,8.6-0.4,12.7-0.5c0.9,0,1.8,0,2.6-0.1c1.1,0.1,2.3,0.2,3.4,0.2c5.6,0.4,11.2,0.5,16.8,0.7
	c11.2,0.3,22.5,0.3,33.7,0.4c22.6,0.1,45.2,0.2,67.8,0.2c45.2,0,90.4,0,135.6,0c12.5,0,25,0,37.5,0c11,0,21.9,0,32.8-1.5
	c3.2-0.2,6.6-0.6,9.7-0.1C921.8,988.7,923.2,989.2,923.4,989.5L923.4,989.5z M881.2,958L881.2,958c2.1,4.9,4.3,9.8,6.5,14.6
	c0.9,1.9,1.8,4.2,2.9,6.4c-2.5,0-5-0.1-7.5-0.1c-11.2,0-22.4,0-33.7,0c-22.6,0-45.2,0-67.8,0c-45.2,0-90.4,0-135.6,0.2
	c-12.5,0.1-25,0.2-37.5,0.4c-2.2,0-4.4,0.1-6.6,0.1c0.9-1.6,1.7-3.2,2.5-4.7c2.9-5.6,5.7-11.3,8.4-17c2.2-4.7,4.3-9.4,6.4-14.2
	c14.9,2.2,30.2,2,45.2,2.3c16.5,0.4,33,0.7,49.5,0.7c33,0,66,0,99-0.3c18.5-0.2,37.3,0.2,55.7-1.7c1.9,0.3,3.6-1.8,3.6-3.6
	c0-0.2,0-0.4-0.1-0.6c0.5-0.2,1-0.5,1.4-0.8c0.4,1,0.8,1.9,1.2,2.9C876.7,947.7,878.9,952.9,881.2,958L881.2,958z M869.1,929.5
	L869.1,929.5c-4-0.2-8.1-0.4-12.1-0.6c4,0,8,0,11.9,0C868.9,929,869,929.3,869.1,929.5L869.1,929.5z M1062.9,919.1L1062.9,919.1
	c-1.1,0.1-2.2,0.2-3.3,0.2c-16.5-1.2-33.2-1.1-49.8-1.3c-20.9-0.2-41.8-0.4-62.7-0.5c-41.8-0.3-83.6-0.3-125.4-0.3
	c-83.6,0-167.2,0-250.7,0c-23.5,0-46.9,0-70.4,0c-11.1,0-22.2,0-33.3,0c-1.6-1-3.4-1.3-5.3-1.4c0.7-0.5,1.2-1.4,0.9-2.4
	c-1.1-3.6-5.6-5.6-8.6-7.5c-3.5-2.2-7-4.5-10.5-6.7c-7-4.5-14.2-8.6-21.4-12.8c-2.2-1.3-3.9,1.9-2,3.4c6.6,4.9,13.1,9.8,19.9,14.5
	c3.3,2.3,6.6,4.5,9.9,6.8c2.1,1.4,4.8,3.8,7.5,4.8c-0.4,0-0.8,0-1.2,0c-4.3,0.1-8.6,0.4-12.9,0.6c-7.8,0.4-15.6,1.4-23.4,1.6
	c-2.3,0.1-4.8-0.1-5.7-2.5c-1.2-3.3-0.6-7.8-0.6-11.3c-0.1-8.3-0.3-16.7-0.8-25c-0.2-3.7-0.5-7.4-0.8-11c0.9-16.2,1.9-32.4,2.1-48.7
	c0.4-27.2,0.6-54.5,0.8-81.7c0.4-54.5,0.6-109,0.6-163.4c0-15.4,0.1-30.8-0.4-46.1c-0.3-7.7-0.6-15.4-1.2-23.1
	c-0.1-1.9-0.2-3.9-0.4-5.8c-0.1-0.5-0.1-1.1-0.2-1.6c0-2.6,0.1-5.2,0.4-7.8c1-6.5,3.7-13.6,10.3-16c3.8-1.4,8-1.7,12-1.9
	c4.7-0.3,9.4-0.3,14.1-0.5c5-0.1,10-0.2,15-0.3c2.5-0.1,5-0.2,7.5-0.1c1.3,0,2.7,0.1,3.9-0.1c3.3,0,6.7,0,10,0.1
	c20.7,0.3,41.5,0.3,62.2,0.5c41.5,0.3,82.9,0.2,124.4,0.2c82.9,0,165.8,0,248.7,0c35.2,0,70.4,0.5,105.5-0.9
	c0.9,0.3,1.8,0.6,2.8,0.7c2,0.2,4.1,0.3,6.2,0.4c4.1,0.1,8.2,0.1,12.3,0.1c7.9,0.1,15.8,0,23.7,0c4.9,0,11.9-0.3,13.1,5.7
	c0.7,3.4,0.4,7.2,0.5,10.7c0.1,3.9,0.2,7.9,0.3,11.8c0.1,1.9,0.1,3.8,0.2,5.8c-0.4,2.6-1.1,5.2-1.1,7.8c-0.1,3.5-0.4,7-0.5,10.6
	c-0.5,13.9-0.3,27.9-0.4,41.8c-0.1,28.1-0.1,56.1-0.1,84.2c-0.1,55.8,0,111.6,0,167.4c0,15.7-0.3,31.4,0.1,47.1
	c0.2,7.7,0.4,15.4,0.7,23.1c0.2,4.8,0.2,9.6,0.5,14.4c-0.2,4.3-1.1,8.3-4.2,11.7C1077.1,918.8,1068.7,918.6,1062.9,919.1z"/>
<path class="st5" d="M1057.2,858.7c1.6-0.1,2.3-1.4,2.1-2.6c0.6-0.1,1.1-0.6,1.1-1.4c0.2-2.9,0.7-5.8,0.8-8.6
	c0.1-2.9,0.1-5.8,0.1-8.6c0.1-5.8,0.2-11.5,0.2-17.3c0.1-11.5,0.2-23.1,0.4-34.6c0.3-23.1,0.4-46.1,0.4-69.2
	c0-46.1,0.1-92.2,0-138.3c0-12.8,0-25.6-0.2-38.4c-0.1-6.6-0.2-13.1-0.4-19.7c-0.1-2.6-0.1-5.2-0.2-7.8c0.2-1.2,0.3-2.5,0.4-3.5
	c0.1-2.5,0.2-5.5-0.9-7.9c-1-2.3-2.9-3.6-5.4-3.9c-1.1-0.1-2.2-0.1-3.2,0.1c-0.6,0.1-1.1,0.2-1.7,0.4c-18.9-1.1-38-0.5-57-0.5
	c-19.2,0-38.4-0.4-57.6-0.5c-38.4-0.2-76.8-0.6-115.3-0.6c-76.4,0-152.9,0-229.3,0.1c-21.6,0-43.1,0-64.7,0.3
	c-10.6,0.1-21.2,0.3-31.8,0.4c-0.2,0-0.4,0-0.7,0c-0.1-0.1-0.3-0.3-0.5-0.4c-2.9-1.3-6.2-1.4-9.4-1.5c-3.4-0.1-6.9,0-10.3,0.1
	c-6.8,0.1-13.6,0-20.4,0.3c-4.9,0.2-12.9,0.5-14,6.5c-0.2,1.1-0.2,2.3-0.2,3.5c-1.6,22.1-1,44.5-1.2,66.7
	c-0.1,22.8-0.3,45.5-0.3,68.3c-0.1,45.7-0.1,91.3-0.1,137c0,12.8,0,25.6,0,38.5c0,9.7,0,19.4,0.4,29.1c-0.8,2.8-1.2,5.6,0.2,8.4
	c0.1,0.3,0.3,0.5,0.4,0.8c0,0.1,0,0.1,0,0.2c0.1,1,0.8,1.5,1.5,1.6c2.1,1.8,5.1,2.4,8,2.6c5.1,0.4,10.3,0.3,15.4,0.2
	c8.1,1,16.2,0.8,24.3,0.9c9.5,0.1,19.1,0.1,28.6,0.1c19.5,0,38.9,0,58.4,0.1c38.9,0,77.9,0.1,116.8,0.1
	c77.9,0.1,155.8,0.6,233.6,0.4c21.9-0.1,43.7-0.1,65.6-0.2C1013.4,859.5,1035.4,860.2,1057.2,858.7L1057.2,858.7z M823.5,853.2
	L823.5,853.2c-77.9,0.3-155.8,0.3-233.6,0.4c-21.9,0-43.7,0-65.6,0.1c-10.7,0-21.5,0-32.2,0.1c-3.6,0-7.2,0-10.8,0
	c-3.6-1.8-9-0.9-12.8-0.9c-4.5,0-9,0.1-13.4,0.2c-2.1,0.1-4.1,0.1-6.2,0.2c-1.6,0-3.4,0.1-4.9-0.8c-0.5-0.3-0.9-0.7-1.2-1.1
	c0.8-10.7,0.9-21.3,0.9-32.1c0-11.4,0-22.8,0-34.1c0-22.8,0-45.5,0-68.3c0-45.7-0.1-91.3-0.4-137c-0.1-12.8-0.1-25.6-0.2-38.5
	c-0.1-7.5-0.1-15.1-0.3-22.6l0,0c1.5-1.8,1.2-4.4,1.2-6.6c0.1-2.8,0-5.8,0.4-8.6c0.2-1.5,0.7-2.2,2.2-2.4c1.4-0.2,2.9-0.2,4.3-0.1
	c2.8,0,5.7,0,8.5,0c2.3,0,4.6,0,7,0c17.7,1.7,35.7,1.1,53.5,1.4c19.2,0.2,38.4,0.4,57.6,0.4c38.4,0,76.8,0.1,115.2,0.1
	c38,0,76.1,0,114.1,0c19.2,0,38.4,0,57.6,0c19.2,0,38.4-0.4,57.6-0.6c21.6-0.1,43.1-0.7,64.7-0.6c21.3,0,42.7,0.8,64-0.5
	c0,0,0,0,0,0c1,0.2,2,0,3,0.2c1.7,0.4,2.3,1.4,2.4,3c0.2,3-0.7,6.6-0.1,9.7c-0.3,6.9-0.2,13.8-0.3,20.7c-0.2,11.5-0.2,23.1-0.2,34.6
	c0,23.1-0.1,46.1-0.1,69.2c0,46.1-0.2,92.2,0.3,138.3c0.1,12.8,0.3,25.6,0.4,38.4c0.1,6.6,0.2,13.1,0.3,19.7
	c0.1,3.2,0.1,6.4,0.2,9.6c0.1,3.2,0.5,6.4,0.8,9.6c-0.1,0-0.2,0-0.3,0c-19.4-1.4-39-0.8-58.4-0.9c-19.5-0.1-38.9-0.2-58.4-0.2
	C901.4,853,862.5,853,823.5,853.2z"/>
<path class="st5" d="M752.2,867.1c-4.9-1.9-10.4-2.5-15.6-1.8c-5.2,0.7-11.2,2.2-14.2,6.9c-0.4,0.7-0.3,1.4,0.1,1.9
	c-3.6,4.5-4.8,10.6-3.2,16.3c2.5,8.7,11.8,14.8,20.7,14.7c9.5-0.1,18.4-6.2,23-14.4c2.5-4.4,3.3-9.9,0.9-14.5
	C761.6,871.7,756.7,868.9,752.2,867.1L752.2,867.1z M759.2,885.4L759.2,885.4c-4.1,14.7-26,21.6-34.9,7.2
	c-3.5-5.5-2.7-13.2,1.5-18.1c3.1-0.9,5.9-2.5,9.1-3.2c3.5-0.8,7.2-0.9,10.7-0.2C752.5,872.5,761.5,876.9,759.2,885.4z"/>
<path class="st5" d="M417.2,904.3c2.7,2.5,5.6,4.8,8.9,6.5c2,1,6.8,3.7,8.5,0.8c1.6-2.7-2.4-4.3-4.2-5.1c-3.4-1.6-6.5-3.7-9.2-6.2
	C418.5,897.9,414.6,901.8,417.2,904.3z"/>
<path class="st5" d="M481.5,900.8c-3.6-2.7-7.2-5.4-10.8-8c-7.2-5.3-14.6-10.3-21.8-15.6c-2-1.5-4.6,1.9-2.7,3.5
	c7,5.6,13.8,11.4,20.8,17c3.5,2.8,7,5.5,10.5,8.2c2.8,2.2,6.9,6.4,10.8,5.9c1.2-0.1,1.8-1,1.7-2.2
	C489.3,905.7,484.3,902.9,481.5,900.8z"/>
<path class="st5" d="M497.6,890.3c-6.7-4.9-13.7-9.5-20.8-13.9c-2.6-1.6-4.7,2.3-2.3,4c6.7,4.8,13.3,9.9,19.8,15
	c6.2,4.8,12.1,10.8,19.7,13.3c1.1,0.4,2-0.9,1.5-1.9C511.5,899.7,504,895,497.6,890.3z"/>
<path class="st5" d="M530.9,895.6c-2.8-2.2-5.6-4.4-8.5-6.6c-5.7-4.3-11.6-8.3-17.3-12.6c-1.8-1.3-4.1,1.7-2.4,3.1
	c5.5,4.6,10.8,9.3,16.3,13.9c2.7,2.2,5.4,4.4,8.1,6.5c2.4,1.9,5.3,4.3,8.5,4.6c0.9,0.1,1.7-1,1.4-1.9
	C536.1,899.7,533.2,897.4,530.9,895.6z"/>
<path class="st5" d="M550.1,898.6c-2.8-2.1-5.3-4.6-7.6-7.2c-2.4-2.7-6.4,1.3-4,4c2.3,2.6,4.8,4.9,7.6,7.1c1.7,1.3,5.6,5,7.8,2.5
	C556.3,902.3,551.7,899.8,550.1,898.6z"/>
<path class="st5" d="M575.1,900.9c-1.6-1.3-3.4-1.8-5.2-2.7c-1.8-0.9-3.4-2-5-3.3c-3.1-2.6-7.5,1.9-4.4,4.4c1.9,1.5,3.8,2.9,6,4
	c2,1,4.5,2.3,6.8,2C575.2,905.1,577,902.5,575.1,900.9z"/>
<path class="st5" d="M584.5,1016.2c-4.1-1.5-7.5-3-10.3-6.4c-1.4-1.7-4.3,0.5-3.1,2.4c2.8,4.4,7.4,8.2,12.8,8.8
	C586.8,1021.3,586.9,1017.1,584.5,1016.2z"/>
<path class="st5" d="M608.9,1016.7c-2.8-2-5.8-3.8-8.7-5.7c-5.8-3.8-11.7-7.4-17.5-11.2c-2.6-1.7-4.8,2.3-2.4,4.1
	c5.7,4,11.2,8.2,16.9,12.2c2.8,2,5.7,4,8.5,5.9c2.6,1.7,4.9,3.5,8.1,3c0.8-0.1,1.1-1.1,1-1.7C614.3,1020,611.4,1018.4,608.9,1016.7z
	"/>
<path class="st5" d="M638.3,1016.9c-3.4-2.3-7.7-3.6-11.3-5.5c-3.8-1.9-7.4-3.9-11-6.2c-2.3-1.4-4.1,2-2,3.5
	c3.5,2.5,7.2,4.9,10.9,7.1c3.5,2.1,7.5,4.6,11.5,5.5C639.1,1022.1,640.6,1018.5,638.3,1016.9z"/>
<path class="st5" d="M653.4,1012.7c-3.2-1.4-6.4-2.7-9.6-3.9c-1.8-0.7-2.9,2.1-1.3,3c3.2,1.7,6.4,3.4,9.6,4.9
	c2.9,1.4,5.9,3.2,9.2,3.1c1.1,0,1.5-1.3,0.8-2C660,1015.2,656.5,1014,653.4,1012.7z"/>
<path class="st5" d="M683,1013c-2.4-1-4.8-2-7.2-2.9c-3.1-1.2-4.5,3.8-1.4,5c4,1.5,9.2,4.6,13.5,3.7c0.9-0.2,1.4-1.4,0.9-2.1
	C687.4,1014.7,685.2,1013.9,683,1013z"/>
<path class="st5" d="M623.2,970.9c-0.5-1.2-1.4-2-2.7-2.8c-1.3-0.8-2.7-1.7-4.2-2.1c-2.4-0.6-3.6,2.2-2.3,3.9c0.9,1.1,2.3,2,3.4,2.8
	c0.6,0.4,1.2,0.8,1.8,1.1c0.8,0.3,1.5,0.2,2.3,0.3c1.5,0.2,2.3-1.7,1.7-2.9C623.3,971.1,623.2,971,623.2,970.9z"/>
<path class="st5" d="M642.5,969.4c-1.9-1.4-3.8-2.8-5.7-4.2c-4-2.8-8-5.5-12.1-8.1c-1.6-1-3.4,1.4-2,2.6c3.6,3.2,7.3,6.3,11.1,9.4
	c3,2.4,7.1,6.9,11.2,6.6c0.9,0,1.5-0.8,1.3-1.7C645.7,972,644.1,970.6,642.5,969.4z"/>
<path class="st5" d="M664.7,968.6c-2.1-1.6-4.4-3.1-6.6-4.6c-4.3-2.9-8.7-5.8-13-8.8c-1.6-1.1-3.7,1.5-2.1,2.8
	c4.1,3.2,8.2,6.5,12.3,9.7c1.9,1.5,3.8,3,5.8,4.5c1.8,1.4,3.5,2.9,5.9,2.4c0.6-0.1,1.2-0.9,1.2-1.5
	C667.8,970.9,666.4,969.9,664.7,968.6z"/>
<path class="st5" d="M681.4,967.7c-1.5-1-2.9-2.1-4.4-3.1c-2-1.4-3.9,1.9-1.9,3.3c1.4,1,2.8,2,4.2,3c1.4,1,2.5,1.6,4.2,1.6
	c0.6,0,1.1-0.6,0.9-1.1C683.7,969.5,682.8,968.7,681.4,967.7z"/>
<path class="st5" d="M961.4,907.3c-2.7-2.1-6.9-2.8-10.2-3.2c-2.4-0.3-3.1,3.3-1.2,4.4c1.5,0.9,3,1.5,4.5,2.1
	c1.6,0.6,3.1,1.4,4.9,1.4C961.6,911.9,963.4,908.9,961.4,907.3z"/>
<path class="st5" d="M978.7,902.1c-4.2-1.8-8.4-3.4-12.7-4.9c-2.5-0.9-4.2,3.1-1.8,4.3c3.9,2,7.9,3.9,11.9,5.7
	c2.1,0.9,8.3,4.8,9.9,1.2C987.6,904.9,980.8,903,978.7,902.1z"/>
<path class="st5" d="M1010.6,902.5c-2.1-1.2-4.2-2.3-6.3-3.4c-4.4-2.3-8.8-4.5-13.2-6.7c-3.1-1.5-5.8,3-2.7,4.6
	c4.5,2.5,8.9,5,13.4,7.4c2.2,1.2,4.5,2.5,6.8,3.6c1.9,0.9,3.7,1.6,5.7,0.7c0.7-0.3,0.9-1.2,0.8-1.9
	C1014.6,904.6,1012.4,903.5,1010.6,902.5z"/>
<path class="st5" d="M1040.1,900.6c-2.5-1.5-5.1-3-7.7-4.5c-5.1-3-10.4-5.8-15.5-8.8c-2.7-1.5-4.9,2.4-2.4,4.1c5,3.2,9.9,6.6,15,9.8
	c2.4,1.5,4.8,3,7.2,4.5c2.2,1.4,5,3.7,7.7,2.7c1.1-0.4,1.5-1.3,1.4-2.4C1045.3,903.2,1042.1,901.8,1040.1,900.6z"/>
<path class="st5" d="M1061.7,895.1c-2.3-1.8-4.7-3.6-7-5.4c-4.7-3.5-9.3-7.1-13.9-10.7c-3.1-2.4-7.5,1.9-4.4,4.4
	c4.7,3.7,9.4,7.4,14,11.1c2.2,1.8,4.4,3.6,6.6,5.3c2.4,1.9,4.8,4.2,7.5,5.5c3.2,1.5,5.9-2.1,3.7-4.8
	C1066.5,898.4,1063.9,896.8,1061.7,895.1z"/>
<path class="st5" d="M1059.5,879.6c2,2,4.1,4.7,6.9,5.6c1.3,0.4,2.7-0.9,2.3-2.3c-0.8-2.8-3.6-4.8-5.6-6.9
	C1060.8,873.6,1057.1,877.3,1059.5,879.6z"/>
<path class="st5" d="M743.7,668.7c3.8-10.4,15.8-19.6,27.1-18.8c3.4,0.3,6.6,1.4,9.7,2.7c2.8,1.1,5.5,2.4,8,4.1
	c4.8,3.2,9.6,8.3,10,14.3c0,0.6-0.3,1.1-0.8,1.3c0.9,3,1.3,6.2,0.9,9.6c-0.7,5.4-3.1,10.5-7.1,14.2c-4,3.7-9,6-14.4,6.6
	c-6.2,0.8-11.9-1.3-17.5-3.8c-3-1.4-6-2.7-8.4-4.9c-2.4-2.1-3.9-5-5.3-7.8C743.3,680.6,741.5,674.9,743.7,668.7L743.7,668.7z
	 M752.4,687.2L752.4,687.2c1.5,2.7,3.4,4.4,6.1,5.9c4.5,2.5,9.6,5.1,14.9,5.4c4.4,0.2,8.8-1,12.5-3.4c8.6-5.6,12.1-18,7.5-27.3
	c-0.2-0.4-0.2-0.7,0-1c-0.2-0.3-0.3-0.5-0.5-0.8c-1.3-1.9-3.1-3.6-4.9-5.1c-3.5-2.8-8.3-5.6-12.8-6.2c-5.2-0.7-10-1.2-14.6,1.9
	c-3.8,2.6-7.6,6.4-9.9,10.4c-2.6,4.4-3.2,8.7-1.3,13.6C750.2,682.9,751.2,685.1,752.4,687.2z"/>
<path class="st5" d="M608,677.3c3.9-1.3,7.7-2.5,11.6-3.8c3.3-1.1,7.1-2.9,10.6-3c0.2-0.3,0.3-0.7,0.5-1c0.7-1.7,1.5-3.3,2.3-4.9
	c0.7-1.4,1.8-3.1,2.3-4.6c-0.3-0.8-0.8-1.5-1.1-2.3c-1.4-3.2-2.9-6.5-4.1-9.8c-1.2-3.2-0.8-6.7,1.9-9.1c2.5-2.1,6-3.4,9-4.9
	c3-1.5,6.1-3,9.2-4.4c3.1-1.4,6.2-2.8,9.3-4.2c2.1-0.9,4.2-1.9,6.4-2.3c1.1-1.6,2.1-3.3,3.2-4.9c2.1-3.2,4.1-6.3,6.2-9.5
	c2-3.2,4-7.5,8.3-7.7c3.3-0.1,6.9,1.5,10.1,2.2c3.4,0.7,6.8,1.4,10.2,1.8c1.4,0.2,3.2,0.6,4.6,0.4c1.2-0.2,2.4-1.2,3.4-1.8
	c1.8-1.1,3.4-2.4,5.1-3.5c0-2.8,0.8-5.6,1.4-8.4c0.7-3.2,1.3-6.5,2.1-9.7c0.7-3.2,1.5-6.4,2.3-9.6c1-3.7,1.7-7.9,5.8-9.4
	c2.9-1,6.5-0.6,9.5-0.7c3.4,0,6.8,0,10.2,0c3.3,0,6.6,0.2,9.8,0.3c1.6,0.1,3.4,0,5,0.6c2.1,0.8,3.2,2.5,3.8,4.6
	c2,6.3,3.2,12.9,4.2,19.4c5,1.8,10.2,3.9,14.7,6.7c1-1.3,2.2-2.4,3.2-3.5c1.6-1.7,3.2-3.4,4.8-5.1c3.3-3.4,6.7-6.8,10.2-10.1
	c1.9-1.8,4.5-1.6,6.4,0c9.1,7.8,22.1,9.9,29.9,19.4c2.2,2.7,3.4,5.3,2.9,8.8c-0.5,3.2-1.5,6.4-2.4,9.5c-0.9,3-2,6-3.2,8.9
	c-0.8,1.9-1.6,4.3-2.8,6.3c2.4,2.1,4.4,4.8,6.2,7.2c1.9,2.5,3.7,5.1,5.3,7.8c5.9-0.5,11.9-1,17.8-1.5c3.5-0.3,7-0.6,10.5-0.8
	c1.8-0.1,4-0.7,5.7-0.2c2,0.5,3.1,2.5,4.2,4c7.2,9.9,12.5,21.1,16.1,32.9c0.7,2.5-0.9,4.8-3.2,5.6c-6,2.1-11.8,4.9-17.3,8.2
	c-2.7,1.6-5.3,3.5-7.9,5.3c-1.7,1.2-3.6,2.3-5.5,2.6c-0.5,2.1-1.1,4.3-1.7,6.4c4.1,4.4,8.2,8.9,12.3,13.3c1.1,1.2,2.3,2.4,2.9,3.9
	c0.9,2.1,0.5,4.2-0.3,6.2c-1.3,3.1-2.8,6.1-4.2,9.2c-3.1,6.4-6.3,12.7-9.7,19c-1.6,3-3.1,6.4-5.2,9.2c-1.3,1.6-3.3,2.5-5.3,2.1
	c-1.7-0.4-3.3-1.4-4.8-2.2c-7-3.6-14.1-7.2-21.1-10.8c-1-0.5-1.7-1.4-2-2.5c-0.8,0.2-1.6,0.3-2.4,0.4c-0.2,9.7,1.2,19.2,4.3,28.5
	c0.8,2.3-0.9,5.1-3.2,5.6c-13.5,3.2-27.5,4-41.3,4.6c-1.7,0.1-3.4,0.3-5.1-0.3c-2.2-0.7-3.3-2.5-4.4-4.3c-1.8-3-3.5-6.1-5-9.3
	c-1.6-3.3-3.2-6.6-4.5-10c-0.6-1.6-1.3-3.2-1.7-5c-3.3-0.9-6.5-2.5-9.7-3.9c-7.9,6.1-15.2,13-21.8,20.6c-1.2,1.4-4,1.8-5.5,0.7
	c-1.3-0.9-2.6-1.9-3.9-2.8c-0.8,0.1-1.7,0.2-2.6,0.2c-2.2,0-4.4,0-6.6,0c-4.3-0.1-8.6-0.1-12.8,0c-4.2,0.1-8.4,0.6-12.6,0.4
	c-5.1-0.2-6.9-5.1-8.4-9.2c-0.3-0.8-1.8-7.1-2.4-9c-0.3,0-0.6-0.1-0.8-0.1c-1.1-0.1-2.1-0.1-3.2-0.2c-0.1,0-0.2,0-0.3,0
	c-0.5,0.8-1.3,2-1.5,2.3c-1,1.7-2,3.4-2.9,5.2c-1.2,2.1-2.2,4.5-4.6,5.4c-4.3,1.7-9.4-2.5-12.2-5.4c-3.3-3.4-6.3-7.1-9.6-10.5
	c-3.3-3.4-6.9-6.7-10.5-9.7c-1.5-1.2-1.7-3.9-0.7-5.4c2.5-4.1,5-8.3,7.7-12.3c-1.2-1.3-2.4-2.7-3.4-4.2c-1.1-1.5-2.3-3.2-2.9-5
	c-3.9,0.5-7.8,0.5-11.6,0.8c-2.1,0.1-4.3,0.3-6.2-0.8c-1.7-1-2.6-2.9-3.6-4.6c-3.6-6.4-6.5-13.2-8.9-20.1c-1.1-3.3-2.7-7.1-2.9-10.6
	C599.4,679.9,604,678.5,608,677.3L608,677.3z M857.8,759.7L857.8,759.7c0.5,0.3,0.4,0.2-0.1-0.1c0,0,0,0-0.1,0
	C857.7,759.7,857.7,759.7,857.8,759.7L857.8,759.7z M637.9,645.7L637.9,645.7c0,0.1,0.1,0,0.2-0.1
	C638,645.6,637.9,645.7,637.9,645.7L637.9,645.7z M731.3,571.7L731.3,571.7C731.3,571.7,731.3,571.7,731.3,571.7
	C731.2,571.7,731.1,571.7,731.3,571.7L731.3,571.7z M871.6,725.1L871.6,725.1c-0.1,0.1-0.2,0.2-0.2,0.4
	C871.6,725.2,871.6,725.1,871.6,725.1L871.6,725.1z M782.2,783L782.2,783c-0.1,0-0.1-0.1-0.2-0.1C781.7,783,781.7,783.1,782.2,783
	L782.2,783z M728.7,770.6L728.7,770.6c4.8-5.3,9.9-10.2,15.4-14.7c1.7-1.4,3.4-2.7,5.1-4c0.9-0.7,1.8-1.5,2.8-1.9
	c1.7-0.7,3-0.2,4.6,0.5c3.5,1.5,7.4,2.9,10.8,4.8c0.3,0.1,0.6,0.2,0.9,0.4c0.4,0.3,0.7,0.5,1,0.8c0.4,0.3,0.7,0.7,0.9,1
	c1.2,1.5,2,3.4,2.9,5.2c0.6,1.4,1.3,2.8,1.9,4.2c0.1-0.1,0.1-0.1,0.2-0.2c0.4-0.4,1.1-0.6,1.6-0.4c3.6,1.3,6.9,3.4,10.4,5.1
	c3.5,1.7,7.1,3.3,10.8,4.9c1.3,0.6,0.4,2.8-1,2.3c-3.6-1.3-7.2-2.7-10.7-4.2c-3.3-1.4-6.8-2.7-9.9-4.5c0,0.1,0.1,0.1,0.1,0.2
	c1.2,2.4,2.4,4.8,3.7,7.2c0.7,1.2,1.3,2.5,2,3.7c0.3,0.5,0.6,1.2,1,1.9c0.2,0,0.3,0,0.5,0c0.9,0,1.8-0.1,2.8-0.1
	c1.8-0.1,3.7-0.2,5.5-0.3c3.6-0.2,7.1-0.4,10.7-0.7c5.5-0.5,11-1.2,16.4-2.2c-2.7-9.8-3.7-20-3-30.1c0.1-1.9,1.3-4.1,3.4-4.4
	c3.8-0.7,12.1-3.6,13.6,1.9c0,0.1,0,0.1,0,0.2c0.3,0.1,0.6,0.2,0.9,0.4c4.1,2.1,8.3,4.2,12.4,6.4c2,1,4,2.1,6,3.1
	c0.8,0.4,1.7,0.9,2.5,1.3c0-0.1,0.1-0.2,0.1-0.2c0.7-1.2,1.3-2.5,2-3.7c1.3-2.4,2.6-4.9,3.9-7.4c2.5-4.8,4.9-9.7,7.3-14.6
	c0.2-0.5,2.1-4.4,2.9-6.3c-0.3-0.3-0.5-0.7-0.7-0.9c-0.9-1-1.8-2-2.8-3c-3.7-4-7.4-8-11.1-12c-1-1.1-1.7-2.8-1.2-4.3
	c1.5-4.6,3-9.2,5-13.6c0.7-1.6,2.8-2.1,4.3-1.7c0.2-0.1,0.3-0.2,0.5-0.3c1.3-0.7,2.5-1.6,3.7-2.5c2.5-1.8,5.1-3.5,7.8-5.1
	c4.3-2.5,8.9-4.7,13.5-6.6c-3.2-9.3-7.8-18.1-13.5-26.2c-11,0.9-22.1,1.8-33.1,2.5c-1.5,0.1-3.2-0.9-3.9-2.3
	c-1.7-3.4-3.6-6.7-5.7-9.8c-2-3.1-4.9-5.9-6.4-9.3c-0.4-0.9-0.4-1.9-0.1-2.8c0.3-2.7,1.7-5.4,2.6-7.9c1-2.8,1.9-5.7,2.7-8.6
	c0.7-2.8,1.4-5.7,1.7-8.5c0.1-1,0.2-1-0.3-1.7c-0.7-1-1.7-1.8-2.5-2.6c-3.9-3.5-8.8-5.8-13.4-8.1c-3.8-1.9-7.6-3.9-11.1-6.3
	c-2.5,2.4-5,4.9-7.4,7.4c-1.6,1.7-3.2,3.4-4.8,5.1c-1.8,1.9-3.4,3.9-5.6,5.3c-1.6,0.9-3.7,0.6-5-0.7c0,0,0,0,0,0
	c-2.9-1-5.7-2.4-8.6-3.5c-3.3-1.3-6.6-2.4-10.1-3.3c-1.4-0.4-2.8-1.6-3.1-3.1c-0.7-3.5-1.4-6.9-2.2-10.4c-0.4-1.8-0.8-3.7-1.3-5.5
	c-0.3-1.2-0.9-2.6-1.1-3.9c-0.8,0-1.6-0.1-2.4-0.1c-1.7-0.1-3.4-0.1-5.1-0.2c-3.6-0.1-7.3-0.1-10.9-0.1c-1.7,0-3.4,0-5.1,0.1
	c-0.6,0-1.5,0.2-2.3,0.2c-0.2,1.4-0.9,3.1-1.2,4.4c-0.5,1.9-0.9,3.8-1.4,5.7c-0.8,3.6-1.6,7.1-2.4,10.7c-0.7,3.6-0.9,7.8-2.8,11
	c-0.6,0.9-1.4,1.5-2.4,1.8c-1.4,1.7-3.2,3.1-4.8,4.5c-2.9,2.5-5.6,4.6-9.6,4.6c-3.6,0-7.4-0.7-10.9-1.3c-3.6-0.6-7.1-1.3-10.6-2.3
	c-0.2,0-0.8-0.2-1.4-0.3c-0.9,1.4-2.5,3.6-2.8,4c-2.1,3.2-4.1,6.3-6.2,9.5c-2.1,3.2-4.1,6.3-6.2,9.5c-1,1.5-1.9,3.1-2.9,4.6
	c0.4,0.3,0.8,0.7,1.2,1c2.4,2,4.8,3.8,7.1,5.9c2.2,2,4.2,4.2,6.1,6.4c0.9,1.1,1.8,2.2,2.7,3.3c1.6,1.9,2.4,3.2,2,5.9
	c0,0.1,0,0.2,0,0.2c1,3.5,1.5,7.1,2.7,10.6c0.8,2.4-1,4.7-3.1,5.4c-7.6,2.6-15,5.7-22.2,9.3c1.9,4.8,2.9,10,4,15.1
	c1.1,5.5,2.6,10.8,4.9,15.9c4.5-1.2,9-2.3,13.6-3.2c2.9-0.6,5.9-1.1,8.8-1.5c3.1-0.4,5.9-0.7,9,0.3c2.1,0.2,3.7,1.6,5.6,2.8
	c2.1,1.4,4.3,2.7,6.6,3.7c2.3,1.1,2.5,4,1.6,6c-2.2,5-3.2,10.3-4.4,15.6c-1.3,5.5-2.4,11.1-3.9,16.5c0.3,0.2,0.6,0.4,1,0.6
	c2.4,1.6,4.8,3.2,7.2,4.8C721.2,765.4,725,768,728.7,770.6L728.7,770.6z M690.8,770.5L690.8,770.5
	C690.9,770.8,691,770.8,690.8,770.5c0-0.1,0-0.1-0.1-0.1C690.8,770.4,690.8,770.4,690.8,770.5L690.8,770.5z M688.9,769.3
	L688.9,769.3c-0.1,0-0.1-0.1-0.2-0.1C688.5,769.3,688.5,769.4,688.9,769.3L688.9,769.3z M677.6,759.8L677.6,759.8
	C677.6,759.7,677.6,759.7,677.6,759.8C677.6,759.7,677.6,759.7,677.6,759.8L677.6,759.8z M611.8,694.2L611.8,694.2
	c1.9,5.5,4.3,10.7,7,15.9c0.3,0.6,0.6,1.2,0.9,1.8c0.2,0.3,0.3,0.6,0.5,0.9c1.1,0.1,3.2,0.5,3.6,0.5c3.4,0.4,6.9,0.7,10.4,1.3
	c0.2,0,0.4,0.1,0.6,0.2c0.5-0.1,1.1,0,1.7,0.3c2.3,1.2,3.6,3.3,5.2,5.2c1.5,1.8,3.3,3.4,5.1,4.8c1.9,1.4,2.7,3.6,1.6,5.8
	c-2.2,4.1-4.6,8.1-7,12c3.6,3.2,7.1,6.5,10.4,10c1.9,2.1,3.8,4.3,5.7,6.4c0.9,1,1.9,2.1,3,3c0.2,0.2,0.5,0.4,0.7,0.6
	c0-0.1,0.1-0.1,0.1-0.1c0.5-1,1.1-1.9,1.7-2.9c1.1-1.9,2.1-3.9,3.3-5.7c1.5-2.3,3.6-3.5,6.3-3.5c2.3,0,4.6,0.1,6.9,0.4
	c4.9,0.7,7.2,4.7,8,9.2c0.4,1.9,0.8,3.8,1.4,5.6c0.3,0.9,0.6,1.7,1,2.6c0.1,0.2,0.2,0.5,0.4,0.7c0.2,0,0.3,0,0.4,0
	c0.7,0,1.5-0.1,2.2-0.1c1.7-0.1,3.4-0.1,5.1-0.2c3.2-0.1,6.4-0.1,9.5-0.1c1.2,0,2.4,0,3.6,0c-1.8-1.4-3.7-2.7-5.5-4.1
	c-1.2-0.9-2.4-1.8-3.5-2.8c-1.2-1.1-1.9-2.2-2.6-3.6c-0.8-1.4-0.1-2.9,1.1-3.6c1.1-5.6,2.6-11.2,4-16.8c1-4.2,1.7-9.1,3.5-13.3
	c-1.1-0.8-2.2-1.5-3.2-2.4c-0.9-0.7-1.9-1.5-2.8-2.4c-1.7,0.6-3.4,1-5.3,1.3c-2.9,0.5-5.8,1.1-8.7,1.6c-5.7,1.1-11.3,2.5-16.9,4.1
	c-1.9,0.5-4.2-0.4-5.1-2.1c-3.3-6.3-5.6-13-7-19.9c-1.3-6.3-2.2-12.8-5.3-18.4c-1.2-2.1-0.5-5,1.7-6.2c7.7-4.2,15.7-7.8,23.9-10.6
	c-0.5-2.4-0.7-4.9-0.5-7.3c-0.5-0.4-0.9-0.9-1.4-1.5c-1-1.2-2-2.4-3-3.5c-1.9-2.2-4-4.4-6.2-6.4c-2.3-2-4.8-3.8-6.9-6.1
	c-0.3-0.3-0.6-0.7-0.9-1.1c-2.4-0.1-4.5-2.9-3.9-5.3c0.1-0.5,0.3-1,0.5-1.5c0-0.2-0.1-0.4-0.1-0.5c-0.6,0.3-1.1,0.5-1.7,0.8
	c-3.1,1.4-6.1,2.9-9.2,4.4c-0.7,0.3-5.4,2.5-7.4,3.6c0.1,0.2,0.1,0.4,0.1,0.4c0.6,1.6,1.3,3.2,2,4.8c1.2,2.9,3,6.1,3,9.3
	c0,3.3-2.5,6.5-4.1,9.3c-1.5,2.7-3.2,6.3-5.7,8.2c-0.1,0.1-0.2,0.2-0.3,0.3c-2.6,2.5-7.1,3.2-10.4,4.3c-3.1,1-6.3,2-9.4,3.1
	c-1.5,0.5-3.1,1-4.6,1.5C610,689,610.9,691.7,611.8,694.2z"/>
<path class="st5" d="M791.1,765.4c2-0.2,4.2,1.5,6,2.3c2.4,1,4.8,1.9,7.3,2.7c1.4,0.4,0.8,2.6-0.6,2.2c-2.6-0.8-5.1-1.6-7.7-2.6
	c-1.9-0.8-4.7-1.4-5.8-3.2C790,766.1,790.5,765.4,791.1,765.4z"/>
<path class="st5" d="M801,764.3c-0.3-0.4,0-1,0.5-1.1c1.5-0.4,2.8,0.2,4.1,0.7c1.6,0.6,3.3,1.2,4.9,1.7c1.6,0.6,1,3.2-0.7,2.6
	c-1.7-0.6-3.5-1.2-5.2-1.9C803.2,765.8,801.9,765.5,801,764.3z"/>
<path class="st5" d="M838.6,714.2c1.3-0.2,2.6-0.4,3.9-0.6c1.4-0.2,2,1.9,0.6,2.2c-1.4,0.2-2.7,0.5-4.1,0.7
	c-1.1,0.2-2.6,0.7-3.4-0.2c-0.2-0.3-0.3-0.6-0.1-0.9C836,714.3,837.5,714.4,838.6,714.2z"/>
<path class="st5" d="M829.9,709c-0.2-0.3-0.2-0.7,0-1c0.7-1.2,1.7-1.3,3-1.4c1.7-0.2,3.5-0.2,5.2-0.3c3.5-0.3,6.9-0.7,10.3-1.3
	c2-0.4,2.9,2.7,0.8,3.1c-3.5,0.6-7,1.2-10.5,1.6C836.5,710,831.5,711.4,829.9,709z"/>
<path class="st5" d="M839.8,695.9c4.1-0.3,8.2-1.1,12.2-2.2c1.8-0.5,2.5,2.2,0.7,2.8c-3.7,1.2-7.4,2-11.3,2.5
	c-1.6,0.2-8.9,1.7-9.3-1C831.8,695.4,838.3,696.1,839.8,695.9z"/>
<path class="st5" d="M845.5,685.4c-1.7,0.1-3.9,0.6-5.5,0c-0.6-0.2-0.8-0.8-0.6-1.3c0.7-1.5,2.7-1.9,4.2-2c2.1-0.2,4.3-0.1,6.5-0.1
	c4.8-0.2,9.4-0.7,14-1.8c1.4-0.3,2,1.8,0.6,2.2c-4.2,1.1-8.5,2.1-12.9,2.6C849.8,685.2,847.7,685.3,845.5,685.4z"/>
<path class="st5" d="M860.5,674.3c-1.9,0.4-3.8,0.6-5.8,0.9c-1.9,0.2-4.2,0.8-5.9-0.3c-0.5-0.3-0.7-1.1-0.2-1.6
	c1.3-1.1,3.1-1.1,4.7-1.3c2.2-0.2,4.4-0.5,6.5-0.8c4.2-0.6,8.4-1.4,12.5-2.5c1.6-0.4,2.2,2,0.7,2.5
	C868.9,672.4,864.7,673.5,860.5,674.3z"/>
<path class="st5" d="M709,709.1c-6.6,0.3-13.2,0.2-19.8-0.2c-3.2-0.2-6.5-0.5-9.7-0.9c-2.4-0.3-6.3-0.7-7.6-3.1
	c-0.3-0.7-0.1-1.6,0.7-1.8c1.4-0.3,2.6,0.3,4,0.4c1.3,0.1,2.6,0.3,3.9,0.5c3.2,0.4,6.5,0.8,9.7,1.2c6.2,0.6,12.5,0.9,18.8,0.9
	C710.9,706.1,710.9,709.1,709,709.1z"/>
<path class="st5" d="M705.1,699.7c-2.9,0-5.7-0.3-8.5-0.8c-2.1-0.4-6-0.7-7.1-2.8c-0.3-0.6,0-1.2,0.6-1.4c1.2-0.5,2.1,0,3.2,0.4
	c1.2,0.4,2.4,0.7,3.6,1c2.7,0.6,5.4,0.9,8.1,0.9C706.9,697,706.9,699.7,705.1,699.7z"/>
<path class="st5" d="M706.1,691.2c-2-0.3-4.1-0.7-6.1-1.2c-1.6-0.4-3.2-0.7-4.2-2.1c-0.3-0.5,0.1-1,0.5-1.2c1.6-0.6,3.2,0.1,4.8,0.5
	c1.9,0.5,3.8,0.8,5.7,1.1C708.8,688.6,708,691.5,706.1,691.2z"/>
<path class="st5" d="M711.4,679.5c-2.5,0.3-6.2,0.7-7.9-1.6c-0.2-0.3-0.2-0.9,0.2-1.2c1-0.8,2.3-1,3.5-1c1.4,0,2.8,0,4.2-0.2
	c1.1-0.1,2,1,2,2C713.5,678.6,712.5,679.4,711.4,679.5z"/>
<path class="st8" d="M682.2,614.5L667,638.1c8.7,7.3,9.6,7.4,17.2,16.5c2.6,3.2,1.9,3.7,2,6.1c1,3.5,1.5,7.1,2.7,10.6
	c0.8,2.4-1,4.7-3.1,5.4c-7.6,2.6-15,5.7-22.2,9.3c4,10.1,3.5,18.9,8.9,31l22.4-4.7c12-1.6,11.7,2.5,21.2,6.8c2.3,1.1,2.5,4,1.6,6
	c-3.3,7.2-5.8,23.3-8.3,32.1l19.5,13.2l20.5-18.7c2.9-2.1,3.7-3,7.5-1.3c3.9,1.7,11.3,4,13.5,7.1l4.8,9.4c1.7-2.2,7.1,2,12.2,4.4
	c3.5,1.7,7.1,3.3,10.8,4.9c1.3,0.6,0.4,2.8-1,2.3l-20.6-8.7l6.8,12.9l35.9-3.4c-2.7-9.8-3.7-20-3-30.1c0.1-1.9,1.3-4.1,3.4-4.4
	c3.5-0.6,12.5-3.7,13.6,2.1l21.8,11.1l16.3-32.2l-14.6-16c-1-1.1-1.7-2.8-1.2-4.3c1.5-4.6,3-9.2,5-13.6c1.2-2.6,3.6-1.3,4.8-2
	l11.6-7.6c4.3-2.5,8.9-4.7,13.5-6.6c-3.2-9.3-7.8-18.1-13.5-26.2c-11,0.9-22.1,1.8-33.1,2.5c-1.5,0.1-3.2-0.9-3.9-2.3
	c-1.7-3.4-3.6-6.7-5.7-9.8c-7.6-11.5-8.5-7.2-3.9-20c1-2.8,5.7-16.7,4.1-18.9c-5-6.8-18.6-11.1-27-17l-17.8,17.7c-2.3,1.4-4,0-5-0.7
	l-18.7-6.8c-1.4-0.4-2.8-1.6-3.1-3.1l-3.5-15.9c-0.3-1.2-0.9-2.6-1.1-3.9l-23.5-0.2c-0.6,0-1.5,0.2-2.3,0.2l-2.6,10.1
	c-0.8,3.6-1.6,7.1-2.4,10.7c-0.7,3.6-0.9,7.8-2.9,11c-0.6,0.9-1.4,1.5-2.4,1.8c-1.3,0.8-7.5,9.1-14.3,9.1l-22.9-3.8
	C684.1,612,682.4,614.2,682.2,614.5L682.2,614.5z M780.6,652.7c2.8,1.1,5.5,2.4,8,4.1c4.8,3.2,9.6,8.3,10,14.3
	c0,0.6-0.3,1.1-0.8,1.3c0.9,3,1.3,6.2,0.9,9.6c-0.7,5.4-3.1,10.5-7.1,14.2c-4,3.7-9,6-14.4,6.6c-6.2,0.8-11.9-1.3-17.5-3.8
	c-3-1.4-6-2.7-8.4-4.9c-2.4-2.1-3.9-5-5.3-7.8c-2.8-5.6-4.5-11.4-2.3-17.5c3.8-10.4,15.8-19.6,27.1-18.8
	C774.3,650.2,777.4,651.4,780.6,652.7L780.6,652.7z M690.2,705.2c6.2,0.6,12.5,0.9,18.8,0.9c1.9,0,2,2.9,0,3
	c-6.6,0.3-13.2,0.2-19.8-0.2c-3.2-0.2-6.5-0.5-9.7-0.9c-2.4-0.3-6.3-0.7-7.6-3.1c-0.3-0.6-0.1-1.6,0.7-1.8c1.4-0.3,2.6,0.3,4,0.4
	l3.9,0.5C683.7,704.5,686.9,704.9,690.2,705.2L690.2,705.2z M791.1,765.4c2-0.2,4.2,1.5,6,2.3c2.4,1,4.8,1.9,7.3,2.7
	c1.4,0.4,0.8,2.6-0.6,2.2c-2.6-0.8-5.1-1.6-7.7-2.6c-1.9-0.8-4.7-1.4-5.8-3.2C790,766.1,790.5,765.4,791.1,765.4L791.1,765.4z
	 M839.5,684.1c0.7-1.5,2.7-1.9,4.2-2c2.1-0.2,4.3-0.1,6.5-0.1c4.8-0.2,9.4-0.7,14-1.8c1.4-0.3,2,1.8,0.6,2.2
	c-4.2,1.2-8.5,2.1-12.9,2.6c-2.1,0.3-4.2,0.4-6.4,0.5c-1.7,0.1-3.9,0.7-5.5,0.1C839.5,685.2,839.2,684.6,839.5,684.1L839.5,684.1z
	 M707.3,675.7c1.4,0,2.8,0,4.2-0.2c1.1-0.1,2,1,2,2c0,1.2-0.9,1.9-2,2c-2.5,0.3-6.2,0.7-7.9-1.6c-0.2-0.3-0.2-0.9,0.2-1.2
	C704.7,675.9,706,675.6,707.3,675.7L707.3,675.7z M706.8,688.3c1.9,0.3,1.1,3.2-0.8,2.9c-2-0.3-4.1-0.7-6.1-1.2
	c-1.6-0.4-3.2-0.7-4.2-2.1c-0.3-0.5,0.1-1,0.5-1.2c1.6-0.6,3.2,0.1,4.8,0.5C703,687.6,704.9,688,706.8,688.3L706.8,688.3z
	 M705.1,697c1.8,0,1.8,2.7,0,2.7c-2.9,0-5.7-0.3-8.5-0.8c-2.1-0.4-6-0.7-7.1-2.8c-0.3-0.6,0-1.2,0.6-1.4c1.2-0.5,2.1,0,3.2,0.4
	c1.2,0.4,2.4,0.7,3.6,1C699.7,696.6,702.4,696.9,705.1,697L705.1,697z M801,764.3c-0.3-0.4,0-1,0.5-1.1c1.5-0.4,2.8,0.2,4.1,0.7
	l4.9,1.7c1.6,0.6,1,3.2-0.7,2.6l-5.2-1.9C803.2,765.8,801.9,765.5,801,764.3L801,764.3z M848.6,673.4c1.3-1.1,3.1-1.1,4.7-1.3
	c2.2-0.2,4.4-0.5,6.5-0.8c4.2-0.6,8.4-1.4,12.5-2.5c1.6-0.5,2.2,2,0.7,2.5c-4.1,1.2-8.3,2.3-12.5,3.1c-1.9,0.4-3.8,0.6-5.8,0.9
	c-1.9,0.2-4.2,0.8-5.9-0.3C848.3,674.6,848.1,673.8,848.6,673.4L848.6,673.4z M839.8,695.9c4.1-0.3,8.2-1.1,12.2-2.2
	c1.8-0.5,2.5,2.2,0.7,2.8c-3.7,1.2-7.4,2-11.3,2.5c-1.6,0.2-8.9,1.7-9.3-1C831.8,695.4,838.3,696.1,839.8,695.9L839.8,695.9z
	 M829.9,709c-0.2-0.3-0.2-0.7,0-1c0.7-1.2,1.7-1.3,3-1.4c1.7-0.2,3.5-0.2,5.2-0.3c3.5-0.3,6.9-0.7,10.3-1.3c2-0.4,2.9,2.7,0.8,3.1
	c-3.5,0.6-7,1.2-10.5,1.6C836.5,710,831.5,711.4,829.9,709L829.9,709z M838.6,714.2l3.9-0.6c1.4-0.2,2,1.9,0.6,2.2l-4.1,0.7
	c-1.1,0.2-2.6,0.7-3.4-0.2c-0.2-0.3-0.3-0.6-0.1-0.9C835.9,714.3,837.5,714.4,838.6,714.2z"/>
<path class="st3" d="M1205.8,830.1v45.7"/>
<path class="st3" d="M1228.7,853h-45.7"/>
<path class="st5" d="M685.1,1029.3c-1.9-0.2-3.7,0-5.6,0.1c0,0,0,0-0.1,0c0,0,0,0-0.1,0c-1.9,0.1-3.7,0.2-5.6,0.1
	c-0.1,0-2.5-0.7-2.6,1c-0.1,1.9,2.3,2.7,2.4,2.7c1.8,0.7,3.7,0.7,5.6,0.6c0,0,0,0,0.1,0c0,0,0,0,0,0c1.9-0.1,3.8-0.4,5.6-0.8
	c0.1,0,2.5-0.1,2.6-1.8C687.7,1029.3,685.2,1029.3,685.1,1029.3L685.1,1029.3z M582.2,1026c-60.8-0.2-121.8,0.7-182.6,1.4
	c-0.6,0-1.1,0-1.7,0.1c-0.6,0-1.2,0-1.8,0c-60.7,0.7-121.3,1.2-182,1.3c-3.6,0-82.4-1.3-82.5,3.1c-0.2,5.1,78.9,6.6,82.4,6.7
	c60.5,1.5,121.7,1.3,182.2,0.6c0.6,0,1.2,0,1.8-0.1c0.6,0,1.1,0,1.7,0c60.8-0.7,121.8-1.8,182.5-3.2c3.6-0.1,83-0.7,83-5.3
	C665.3,1025.6,585.8,1026.1,582.2,1026L582.2,1026z M121,1027.8c-3-0.4-6.1,0-9.2,0.2c0,0-0.1,0-0.1,0c0,0-0.1,0-0.1,0
	c-3.1,0.2-6.1,0.3-9.1,0.1c-0.2,0-4.1-1.1-4.2,1.6c-0.2,3.2,3.7,4.4,3.9,4.4c3,1.2,6,1.2,9.1,1c0,0,0.1,0,0.1,0c0,0,0.1,0,0.1,0
	c3.1-0.2,6.1-0.7,9.2-1.3c0.2,0,4.2-0.2,4.3-3C125.2,1027.9,121.2,1027.9,121,1027.8z"/>
<path class="st5" d="M1298,1029.3c-1.9-0.2-3.7,0-5.6,0.1c0,0,0,0-0.1,0c0,0,0,0-0.1,0c-1.9,0.1-3.7,0.2-5.6,0.1
	c-0.1,0-2.5-0.7-2.6,1c-0.1,1.9,2.3,2.7,2.4,2.7c1.8,0.7,3.7,0.7,5.6,0.6c0,0,0,0,0.1,0c0,0,0,0,0.1,0c1.9-0.1,3.8-0.4,5.6-0.8
	c0.1,0,2.6-0.1,2.6-1.8C1300.5,1029.3,1298.1,1029.3,1298,1029.3L1298,1029.3z M1195.1,1026c-60.8-0.2-121.8,0.7-182.6,1.4
	c-0.6,0-1.1,0-1.7,0.1c-0.6,0-1.2,0-1.8,0c-60.7,0.7-121.3,1.2-182,1.3c-3.6,0-82.4-1.3-82.5,3.1c-0.2,5.1,78.9,6.6,82.4,6.7
	c60.5,1.5,121.7,1.3,182.2,0.6c0.6,0,1.2,0,1.8-0.1c0.6,0,1.1,0,1.7,0c60.8-0.7,121.7-1.8,182.5-3.2c3.6-0.1,83-0.7,83-5.3
	C1278.2,1025.6,1198.6,1026.1,1195.1,1026L1195.1,1026z M733.8,1027.8c-3-0.4-6.1,0-9.2,0.2c0,0-0.1,0-0.1,0c0,0-0.1,0-0.1,0
	c-3.1,0.2-6.1,0.3-9.1,0.1c-0.2,0-4.1-1.1-4.2,1.6c-0.2,3.2,3.7,4.4,3.9,4.4c3,1.2,6,1.2,9.1,1c0,0,0.1,0,0.1,0c0,0,0.1,0,0.1,0
	c3.1-0.2,6.1-0.7,9.2-1.3c0.2,0,4.2-0.2,4.3-3C738,1027.9,734,1027.9,733.8,1027.8z"/>
<path class="st5" d="M1130.5,799.1c1.2,0.4,2.3,1.2,3,2.3c1.3,1.9,2.6,3.9,3.8,5.9c5.2,8.8,9.1,18.3,12.6,27.9
	c3.6,9.9,6.4,20,8.5,30.3c3.7,18.5,4.9,37.7,2,56.4c3.3,5.7,6.5,11.4,10.3,16.9c7.8,11.4,16.9,21.7,24.9,32.9
	c4,5.5,7.7,11.2,10.7,17.2c1.3,2.5,2.4,5,3.5,7.6c3.6,5.4,4.3,12.6,3.5,18.9c-1.1,8.6-5.5,16.3-11.2,22.6
	c-5.1,5.6-11.3,10-17.6,13.9c-6.3,3.9-12.9,7.3-19.7,10.3c-13.9,6.3-28.5,11.1-43.5,14.2c-15,3.1-30.5,4.3-45.8,3.8
	c-1.3,0-2.6-0.1-4-0.2c-2.9,1.4-6.2,0.9-9.3,0.6c-3.1-0.3-6.1-0.7-9.1-1.2c-1-0.2-2-0.4-2.9-0.5c-0.2,0-0.5,0-0.7,0
	c-2.7-0.3-5.4-0.8-8.1-1.3c-10.4-2.2-20.6-5.2-30.8-8.1c-10.3-3-20.5-6.2-30.6-9.6c-20.2-6.9-39.9-15.1-58.9-24.7
	c-17.3-8.8-33.8-18.9-49.3-30.5c-15-11.3-28.9-23.9-41.1-38.1c-6.2-7.2-11.9-14.7-17.2-22.5c-2.6-3.9-5.1-7.8-7.2-12
	c-1.1-2.1-2.1-4.1-3.1-6.3c-1-2.2-1.5-4.5-2.3-6.7c-0.5-1.6,0-3,1.1-3.9c-0.1-0.8-0.2-1.5-0.3-2.3c-0.9-6.5-1.3-13.2-0.8-19.8
	c0.5-5.9,1.7-11.8,4-17.4c1.1-2.8,2.4-5.5,4.1-8.1c1.4-2.2,3.2-5.1,5.6-6.5c1.9-21.8,8.7-43.2,19.5-62.3
	c15.4-27.2,38.7-49.2,66.7-63.1c28.6-14.2,61.1-21,93-19.5c15.9,0.7,31.8,3.5,46.9,8.7c17.1,5.9,33.8,13.3,48.2,24.3
	c13.1,10.1,24.2,22.6,33.3,36.3C1125.1,789.8,1127.9,794.4,1130.5,799.1z"/>
<path class="st15" d="M835.1,916.7c-0.8-0.7-1.6-1.4-2.4-2.1c-1-0.8-2.2-0.4-2.7,0.3c-2.1-5.2-3.8-10.6-5-16.2
	c0.2-0.6,0.3-1.2,0.3-1.9c-0.6-7.3-1.4-14.5-1.4-21.8c0-7,0.6-14.1,1.8-21c2.4-14.1,7.2-27.9,13.6-40.6
	c9.2-18.1,21.9-34.4,37.4-47.6c19-4.6,39.8,0.9,57.5,7.7c20.1,7.7,38.9,19.1,55.2,33.2c16.3,14.1,30.3,30.8,40.9,49.6
	c11.7,20.7,19.3,43.7,22.5,67.3c3.2,23.8,1.9,48.4-3.9,71.7c-0.6,2.4-1.1,4.8-1.6,7.3c-4.1,0.5-8.1,0.9-12.2,1.2
	c-6.4,0.5-12.9,0.8-19.4,1c-5.2,0.2-10.3,0-15.5,0.2c-2.3-0.1-4.5-0.2-6.8-0.4c-8.3-0.6-16.5-1.5-24.6-2.9
	c-16.7-2.8-33.2-7.2-49.1-13.2c-15.2-5.7-30-12.8-43.6-21.6c-12.9-8.3-25-18.4-34.2-30.7c-4.2-5.6-7.7-11.6-10.5-17.9
	c0.4,0.4,0.7,0.7,1.1,1.1c0.9,0.9,1.7,1.6,3,1.7c1.1,0.1,1.6-1.1,1.5-1.9C836.9,918.2,835.9,917.5,835.1,916.7z"/>
<path class="st16" d="M835.1,916.7c-0.8-0.7-1.6-1.4-2.4-2.1c-1-0.8-2.2-0.4-2.7,0.3c-2.1-5.2-3.8-10.6-5-16.2
	c0.2-0.6,0.3-1.2,0.3-1.9c-0.6-7.3-1.4-14.5-1.4-21.8c0-7,0.6-14.1,1.8-21c2.4-14.1,7.2-27.9,13.6-40.6
	c9.2-18.1,21.9-34.4,37.4-47.6c0,0-68.2,151.4,20.8,213.1c-7.3-3.6-14.4-7.6-21.2-11.9c-12.9-8.3-25-18.4-34.2-30.7
	c-4.2-5.6-7.7-11.6-10.5-17.9c0.4,0.4,0.7,0.7,1.1,1.1c0.9,0.9,1.7,1.6,3,1.7c1.1,0.1,1.6-1.1,1.5-1.9
	C836.9,918.2,835.9,917.5,835.1,916.7L835.1,916.7z M962,1000.6L897.4,979c7.3,3.6,14.8,6.8,22.4,9.6
	C933.5,993.8,947.6,997.8,962,1000.6z"/>
<path class="st15" d="M816.4,897.3c-0.9-3.4-1.4-6.9-1.8-10.5c-0.1-1.3-0.3-2.7-0.3-4c-1.1,3.7-1.7,7.5-1.9,11.4
	c-0.4,5.8,0,11.7,0.8,17.4c0.5,3.2,1,6.4,1.5,9.5c0.3,1.7,0.6,3.4,0.7,5.2c0,0.2,0,0.4,0,0.6c0.3,0.5,0.6,0.9,0.9,1.4
	c2.8,4.3,5.6,8.5,8.6,12.6c5.8,8,12.2,15.5,19,22.6c25.7,26.9,56.9,48,90.3,64.2c18.6,9,37.9,16.6,57.4,23.3
	c9.8,3.4,19.6,6.6,29.5,9.6c5.1,1.5,10.2,3,15.2,4.6c1.4,0.4,2.8,0.9,4.3,1.3c1.1,0.2,2.1,0.4,3.2,0.6c3.8,0.7,7.7,1.2,11.6,1.4
	c4,0.2,7.9,0.2,11.9,0.3c4,0.1,7.9,0.1,11.9,0c27.8-0.5,56-6.6,81.2-18.3c11.9-5.5,24.7-12,33.4-22.1c3.9-4.4,6.4-9.7,7.4-15.5
	c0.3-1.7,0.3-3.4,0.2-5.1c-0.3-0.5-0.5-1.1-0.7-1.6c-0.7-1.7-1.4-3.4-2.1-5.1c-1.3-3.3-2.9-6.5-4.6-9.5
	c-6.5-11.7-15.1-22.1-23.2-32.8c-4.2-5.5-8.3-11.1-11.9-17c-0.8-1.3-1.5-2.6-2.3-3.9c-5.2,17.2-14.7,32.9-28.4,44.8
	c-17.2,15.1-38.8,24.4-61.1,29c-13.4,2.8-27,3.8-40.7,4.1c-1.7,0-3.5,0.1-5.2,0.1c-0.7,0.4-1.4,0.6-2.2,0.7c-5,0.5-10.1,1.1-15.2,1
	c-5-0.1-10-0.4-15.1-0.8c-10-0.8-20.1-2.2-29.9-4.2c-17.3-3.4-34.3-8.5-50.7-15.2c-16-6.6-31.5-14.4-45.6-24.5
	c-13.9-9.9-26.2-22.1-34.8-36.9c-4.2-7.2-7.6-14.9-9.7-23C817.2,907.9,816.5,902.6,816.4,897.3z"/>
<path class="st16" d="M816.4,897.3c-0.9-3.4-1.4-6.9-1.8-10.5c-0.1-1.3-0.3-2.7-0.3-4c-1.1,3.7-1.7,7.5-1.9,11.4
	c-0.4,5.8,0,11.7,0.8,17.4c0.5,3.2,1,6.4,1.5,9.5c0.3,1.7,0.6,3.4,0.7,5.2c0,0.2,0,0.4,0,0.6c0.3,0.5,0.6,0.9,0.9,1.4
	c2.8,4.3,5.6,8.5,8.6,12.6c5.8,8,12.2,15.5,19,22.6c25.7,26.9,56.9,48,90.3,64.2c18.6,9,37.9,16.6,57.4,23.3
	c9.8,3.4,19.6,6.6,29.5,9.6c5.1,1.5,10.2,3,15.2,4.6c1.4,0.4,2.8,0.9,4.3,1.3c1.1,0.2,2.1,0.4,3.2,0.6c3.8,0.7,7.7,1.2,11.6,1.4
	c4,0.2,7.9,0.2,11.9,0.3c4,0.1,7.9,0.1,11.9,0c27.8-0.5,56-6.6,81.2-18.3c11.9-5.5,24.7-12,33.4-22.1c3.9-4.4,6.4-9.7,7.4-15.5
	c0.3-1.7,0.3-3.4,0.2-5.1c-120.3,70.5-189.7,9.3-189.7,9.3c-2.5,0.2-5.1,0.3-7.6,0.3c-5-0.1-10-0.4-15.1-0.8
	c-10-0.8-20.1-2.2-29.9-4.2c-17.3-3.4-34.3-8.5-50.7-15.2c-16-6.6-31.5-14.4-45.6-24.5c-13.9-9.9-26.2-22.1-34.8-36.9
	c-4.2-7.2-7.6-14.9-9.7-23C817.2,907.9,816.5,902.6,816.4,897.3z"/>
<path class="st8" d="M1027.2,757.6c-0.4,1.3-2,2.3-3.5,1.3c-2.7-1.9-5.6-3.4-8.3-5.1c-2.8-1.7-5.5-3.5-8.4-5.1
	c-10.1-5.6-21-9.9-32.1-12.8c-5.6-1.4-11.3-2.5-17-3.2c-2.9-0.4-5.7-0.6-8.6-0.8c-0.2,0-0.5,0-0.7,0c-18,3.7-35.5,10.3-51.4,19.6
	c-2.1,1.2-4.2,2.5-6.2,3.8c6.3,0,12.6,0.7,18.8,1.8c11.7,2.2,23.1,6.1,34.1,10.7c21,8.9,40.3,21.5,57.1,37
	c16.8,15.5,31,34,41.4,54.4c11.5,22.6,18.3,47.5,20.4,72.7c1.1,12.6,0.9,25.3-0.5,37.9c-0.7,6.3-1.7,12.5-3,18.7
	c-0.9,4.3-1.9,8.7-3.3,12.9c5.5-0.9,10.9-2,16.2-3.4c18.9-4.9,37.3-13.6,51.4-27.3c2.1-6.7,4.3-13.4,5.8-20.3
	c1.8-8.2,3.1-16.5,3.7-24.9c2-28.3-3.8-57.1-16.9-82.2c-6.1-11.7-13.7-22.6-22.5-32.4c-8.9-9.9-19.2-18.2-29.4-26.7
	c-1.6-1.3-1.4-3.3-0.4-4.5C1050.3,769.2,1034,760.9,1027.2,757.6z"/>
<path class="st15" d="M975.6,728.3c7,2,13.8,4.5,20.4,7.4c5.6,2.5,11,5.4,16.2,8.6c2.6,1.6,5.2,3.2,7.6,5.1c2.3,1.8,4.5,3.9,6.7,5.8
	c0.4,0.3,0.6,0.7,0.7,1.1c6.6,3.2,23.5,11.7,37.3,22.5c1-0.7,2.2-0.9,3.5-0.2c13.9,7.1,25.8,18.5,35.7,30.4
	c18.3,21.8,31,48.2,35.9,76.3c2.7,15.5,3.2,31.3,1.3,46.9c-0.8,7.1-2.1,14.1-3.9,20.9c6.1-10.7,9.8-22.6,11.5-34.9
	c2.7-19.1,0.7-39.2-3.9-57.9c-3.1-12.8-7.6-25.1-12.9-37.1c-0.1-0.2-0.2-0.4-0.4-0.6c-7.9-13.4-15.6-26.9-25.2-39.1
	c-9.4-11.9-20.6-22.7-33.5-30.8c-7.4-4.7-15.4-8.5-23.5-11.8c-7.4-3-15-5.7-22.7-7.8c-14.4-3.8-29.2-5.4-44.1-5.2
	C980.1,728.1,977.9,728.2,975.6,728.3z"/>
<path class="st5" d="M1130.5,799.1c1.2,0.4,2.3,1.2,3,2.3c1.3,1.9,2.6,3.9,3.8,5.9c5.2,8.8,9.1,18.3,12.6,27.9
	c3.6,9.9,6.4,20,8.5,30.3c3.7,18.5,4.9,37.7,2,56.4c3.3,5.7,6.5,11.4,10.3,16.9c7.8,11.4,16.9,21.7,24.9,32.9
	c4,5.5,7.7,11.2,10.7,17.2c1.3,2.5,2.4,5,3.5,7.6c3.6,5.4,4.3,12.6,3.5,18.9c-1.1,8.6-5.5,16.3-11.2,22.6
	c-5.1,5.6-11.3,10-17.6,13.9c-6.3,3.9-12.9,7.3-19.7,10.3c-13.9,6.3-28.5,11.1-43.5,14.2c-15,3.1-30.5,4.3-45.8,3.8
	c-1.3,0-2.6-0.1-4-0.2c-2.9,1.4-6.2,0.9-9.3,0.6c-3.1-0.3-6.1-0.7-9.1-1.2c-1-0.2-2-0.4-2.9-0.5c-0.2,0-0.5,0-0.7,0
	c-2.7-0.3-5.4-0.8-8.1-1.3c-10.4-2.2-20.6-5.2-30.8-8.1c-10.3-3-20.5-6.2-30.6-9.6c-20.2-6.9-39.9-15.1-58.9-24.7
	c-17.3-8.8-33.8-18.9-49.3-30.5c-15-11.3-28.9-23.9-41.1-38.1c-6.2-7.2-11.9-14.7-17.2-22.5c-2.6-3.9-5.1-7.8-7.2-12
	c-1.1-2.1-2.1-4.1-3.1-6.3c-1-2.2-1.5-4.5-2.3-6.7c-0.5-1.6,0-3,1.1-3.9c-0.1-0.8-0.2-1.5-0.3-2.3c-0.9-6.5-1.3-13.2-0.8-19.8
	c0.5-5.9,1.7-11.8,4-17.4c1.1-2.8,2.4-5.5,4.1-8.1c1.4-2.2,3.2-5.1,5.6-6.5c1.9-21.8,8.7-43.2,19.5-62.3
	c15.4-27.2,38.7-49.2,66.7-63.1c28.6-14.2,61.1-21,93-19.5c15.9,0.7,31.8,3.5,46.9,8.7c17.1,5.9,33.8,13.3,48.2,24.3
	c13.1,10.1,24.2,22.6,33.3,36.3C1125.1,789.8,1127.9,794.4,1130.5,799.1L1130.5,799.1z M975.6,728.3c7,2,13.8,4.5,20.4,7.4
	c5.6,2.5,11,5.4,16.2,8.6c2.6,1.6,5.2,3.2,7.6,5.1c2.3,1.8,4.5,3.9,6.7,5.8c2.2,1.9-0.5,5.3-2.8,3.6c-2.7-1.9-5.6-3.4-8.3-5.1
	c-2.8-1.7-5.5-3.5-8.4-5.1c-10.1-5.6-21-9.9-32.1-12.8c-5.6-1.4-11.3-2.5-17-3.2c-2.9-0.4-5.7-0.6-8.6-0.8c-0.2,0-0.5,0-0.7,0
	c-18,3.7-35.5,10.3-51.4,19.6c-2.1,1.2-4.2,2.5-6.2,3.8c6.3,0,12.6,0.7,18.8,1.8c11.7,2.2,23.1,6.1,34.1,10.7
	c21,8.9,40.3,21.5,57.1,37c16.8,15.5,31,34,41.4,54.4c11.5,22.6,18.3,47.5,20.4,72.7c1.1,12.6,0.9,25.3-0.5,37.9
	c-0.7,6.3-1.7,12.5-3,18.7c-0.9,4.3-1.9,8.7-3.3,12.9c5.5-0.9,10.9-2,16.2-3.4c18.9-4.9,37.3-13.6,51.4-27.3
	c2.1-6.7,4.3-13.4,5.8-20.3c1.8-8.2,3.1-16.5,3.7-24.9c2-28.3-3.8-57.1-16.9-82.2c-6.1-11.7-13.7-22.6-22.5-32.4
	c-8.9-9.9-19.2-18.2-29.4-26.7c-3.1-2.6,0.5-7.3,3.9-5.5c13.9,7.1,25.8,18.5,35.7,30.4c18.3,21.8,31,48.2,35.9,76.3
	c2.7,15.5,3.2,31.3,1.3,46.9c-0.8,7.1-2.1,14.1-3.9,20.9c6.1-10.7,9.8-22.6,11.5-34.9c2.7-19.1,0.7-39.2-3.9-57.9
	c-3.1-12.8-7.6-25.1-12.9-37.1c-0.1-0.2-0.2-0.4-0.4-0.6c-7.9-13.4-15.6-26.9-25.2-39.1c-9.4-11.9-20.6-22.7-33.5-30.8
	c-7.4-4.7-15.4-8.5-23.5-11.8c-7.4-3-15-5.7-22.7-7.8c-14.4-3.8-29.2-5.4-44.1-5.2C980.1,728.1,977.9,728.2,975.6,728.3L975.6,728.3
	z M1000.3,1005.1c5.2-0.2,10.3-0.1,15.5-0.2c6.5-0.2,12.9-0.5,19.4-1c4.1-0.3,8.2-0.7,12.2-1.2c0.5-2.4,1-4.9,1.6-7.3
	c5.8-23.3,7.1-47.9,3.9-71.7c-3.2-23.6-10.8-46.6-22.5-67.3c-10.6-18.7-24.6-35.5-40.9-49.6c-16.3-14.1-35.1-25.5-55.2-33.2
	c-17.8-6.8-38.6-12.3-57.5-7.7c-15.5,13.1-28.2,29.4-37.4,47.6c-6.4,12.7-11.2,26.6-13.6,40.6c-1.2,6.9-1.8,14-1.8,21
	c0,7.3,0.8,14.6,1.4,21.8c0.1,0.6,0,1.3-0.3,1.9c2.9,13.5,8.7,26.4,17,37.5c9.2,12.3,21.3,22.4,34.2,30.7
	c13.7,8.8,28.4,15.9,43.6,21.6c15.9,6,32.4,10.4,49.1,13.2c8.2,1.4,16.4,2.3,24.6,2.9C995.8,1004.9,998.1,1005,1000.3,1005.1
	L1000.3,1005.1z M816.4,897.3c-0.9-3.4-1.4-6.9-1.8-10.5c-0.1-1.3-0.3-2.7-0.3-4c-1.1,3.7-1.7,7.5-1.9,11.4
	c-0.4,5.8,0,11.7,0.8,17.4c0.5,3.2,1,6.4,1.5,9.5c0.3,1.7,0.6,3.4,0.7,5.2c0,0.2,0,0.4,0,0.6c0.3,0.5,0.6,0.9,0.9,1.4
	c2.8,4.3,5.6,8.5,8.6,12.6c5.8,8,12.2,15.5,19,22.6c25.7,26.9,56.9,48,90.3,64.2c18.6,9,37.9,16.6,57.4,23.3
	c9.8,3.4,19.6,6.6,29.5,9.6c5.1,1.5,10.2,3,15.2,4.6c1.4,0.4,2.8,0.9,4.3,1.3c1.1,0.2,2.1,0.4,3.2,0.6c3.8,0.7,7.7,1.2,11.6,1.4
	c4,0.2,7.9,0.2,11.9,0.3c4,0.1,7.9,0.1,11.9,0c27.8-0.5,56-6.6,81.2-18.3c11.9-5.5,24.7-12,33.4-22.1c3.9-4.4,6.4-9.7,7.4-15.5
	c0.3-1.7,0.3-3.4,0.2-5.1c-0.3-0.5-0.5-1.1-0.7-1.6c-0.7-1.7-1.4-3.4-2.1-5.1c-1.3-3.3-2.9-6.5-4.6-9.5
	c-6.5-11.7-15.1-22.1-23.2-32.8c-4.2-5.5-8.3-11.1-11.9-17c-0.8-1.3-1.5-2.6-2.3-3.9c-5.2,17.2-14.7,32.9-28.4,44.8
	c-17.2,15.1-38.8,24.4-61.1,29c-13.4,2.8-27,3.8-40.7,4.1c-1.7,0-3.5,0.1-5.2,0.1c-0.7,0.4-1.4,0.6-2.2,0.7c-5,0.5-10.1,1.1-15.2,1
	c-5-0.1-10-0.4-15.1-0.8c-10-0.8-20.1-2.2-29.9-4.2c-17.3-3.4-34.3-8.5-50.7-15.2c-16-6.6-31.5-14.4-45.6-24.5
	c-13.9-9.9-26.2-22.1-34.8-36.9c-4.2-7.2-7.6-14.9-9.7-23C817.2,907.9,816.5,902.6,816.4,897.3z"/>
<path class="st5" d="M1049.8,772.5c1.6,0.7,2.9-1.5,1.4-2.3c-1.5-0.8-2.9-1.7-4.1-2.9c-1.1-1.1-2-2.4-3.4-3.2
	c-0.6-0.3-1.4,0.1-1.4,0.8C1042.6,768.4,1046.9,771.2,1049.8,772.5z"/>
<path class="st5" d="M1016.7,1053.8c-1.4-1.1-2.7-2.2-4.1-3.3c-1.5-1.2-3.6,0.9-2.1,2.1c1.4,1.2,2.9,2.3,4.3,3.5
	c1.1,0.9,2.4,2.4,3.9,1.9c0.4-0.1,0.6-0.5,0.6-0.8C1019.5,1055.6,1017.8,1054.7,1016.7,1053.8z"/>
<path class="st5" d="M1041.1,1061c-1.8-1.4-3.6-2.7-5.4-4c-3.8-2.6-7.7-4.9-11.9-6.7c-1.8-0.7-2.6,2-1.2,2.9c3.7,2.6,7.6,5,11.2,7.7
	c1.8,1.3,3.6,2.8,5.4,4.1c1.1,0.8,3.6,2.4,4.6,0.5C1044.6,1063.8,1042.2,1061.9,1041.1,1061z"/>
<path class="st5" d="M1063.9,1061.2c-2.2-1.5-4.5-2.9-6.8-4.1c-4.6-2.5-9.4-4.9-14.5-6.2c-1.7-0.5-3,2.2-1.3,3
	c4.6,2.3,9.2,4.3,13.6,6.8c2.1,1.2,4.2,2.5,6.2,3.9c1.6,1.1,4.4,3.7,6.4,2.9c0.6-0.2,0.9-0.6,0.9-1.2
	C1068.8,1064.1,1065.5,1062.3,1063.9,1061.2z"/>
<path class="st5" d="M1078.3,1055.1c-2.6-1.5-5.6-2.9-8.6-3.6c-1.9-0.4-3.4,2.4-1.4,3.4c2.7,1.3,5.3,2.4,7.9,3.9
	c2.3,1.3,4.7,3.5,7.3,3.8c0.8,0.1,1.4-0.8,1.2-1.5C1083.8,1058.3,1080.6,1056.4,1078.3,1055.1z"/>
<path class="st5" d="M1099.6,1053.4c-2.9-1.6-5.8-3.3-8.6-5.1c-2.4-1.6-4.7,2.3-2.3,3.9c2.9,1.9,5.8,3.6,8.8,5.3
	c2.5,1.3,6.1,3.7,9,2.7c0.7-0.2,1-1,0.7-1.7C1106,1055.9,1102.1,1054.7,1099.6,1053.4z"/>
<path class="st5" d="M1118.1,1049.4c-2.3-1-4.7-1.5-7.2-1.5c-2.9,0.1-2.9,4.4,0,4.4c1.8,0,3.7,0.4,5.3,1.3c1.5,0.8,3.2,2,4.9,1.9
	c0.7-0.1,1.1-0.5,1.2-1.2C1122.5,1052,1119.9,1050.2,1118.1,1049.4z"/>
<path class="st5" d="M1130.5,1044.6c-2.4-1.3-4.5,2.3-2.1,3.6c2.6,1.5,5.4,3.5,8.3,4.3c1.7,0.5,3.2-1.8,1.8-3.1
	C1136.3,1047.3,1133.2,1046,1130.5,1044.6z"/>
<path class="st5" d="M1148.2,1040.9c-1.2-0.4-2.5-0.8-3.7-1.3c-1.4-0.5-2.9,0.5-3.3,1.8c-0.4,1.5,0.5,2.8,1.8,3.3
	c1.2,0.4,2.3,0.9,3.5,1.3c1.3,0.5,2.5,1,3.9,0.6c1.4-0.4,2.3-2.1,1.4-3.4C1151,1041.8,1149.7,1041.4,1148.2,1040.9z"/>
<path class="st5" d="M835.1,916.7c-0.8-0.7-1.6-1.4-2.4-2.1c-1.7-1.4-4.1,0.8-2.5,2.5c0.8,0.8,1.6,1.6,2.4,2.4
	c0.9,0.9,1.7,1.6,3,1.7c1.1,0.1,1.6-1.1,1.5-1.9C836.9,918.2,835.9,917.5,835.1,916.7z"/>
<path class="st5" d="M835.8,905.2c-1.4-1.1-2.7-2.5-4.3-3.2c-1.5-0.8-3.6,0.9-2.5,2.5c1,1.6,2.5,2.8,3.9,4.1
	c1.4,1.3,2.7,2.7,4.5,3.3c1.7,0.6,2.9-1.5,2.2-2.9C838.7,907.4,837.1,906.3,835.8,905.2z"/>
<path class="st5" d="M832,895.3c1.4,1.5,2.5,3.4,4.5,4.2c1,0.4,2.4-0.6,2.3-1.7c-0.2-2.3-2.1-4-3.7-5.5c-1.6-1.5-3.4-3-5.5-3.7
	c-1.2-0.4-2.6,1.2-1.7,2.3C829,892.4,830.6,893.8,832,895.3z"/>
<path class="st5" d="M831.4,881.4c1.4,1.5,2.7,3.7,4.6,4.5c1.6,0.7,3.1-0.5,2.8-2.1c-0.4-2.2-2.4-4-3.9-5.5
	c-1.5-1.6-3.2-3.4-5.2-4.4c-1.6-0.8-4,1-2.7,2.7C828.3,878.5,830,879.9,831.4,881.4z"/>
<path class="st5" d="M826.7,865.1c1.7,1.5,3.5,3,5.2,4.5c1.7,1.5,3.4,3.2,5.3,4.4c2.5,1.6,5-1.9,3.1-4c-1.5-1.6-3.4-2.8-5.1-4.1
	c-1.7-1.3-3.5-2.7-5.2-4.1C827.7,859.9,824.4,863.1,826.7,865.1z"/>
<path class="st5" d="M828.4,853.2c1.7,1.4,3.4,2.9,5.1,4.3c1.5,1.2,3.1,2.6,5.1,2.1c0.5-0.1,0.8-0.6,0.8-1c0.1-2.1-1.7-3.4-3.2-4.5
	c-1.8-1.4-3.6-2.7-5.4-4C829,848.7,826.6,851.8,828.4,853.2z"/>
<path class="st5" d="M835,839.8c1.6,1.2,3.1,2.5,5,3.1c1.2,0.4,2.6-1.2,1.8-2.3c-0.7-0.9-1.4-1.6-2.3-2.2c-0.9-0.6-1.7-1.2-2.6-1.7
	c-0.8-0.6-2.1-0.2-2.6,0.7C833.8,838.1,834.2,839.2,835,839.8z"/>
<path class="st5" d="M837.6,825.9c0.7,0.6,1.4,1.2,2.1,1.7c0.9,0.6,1.8,0.8,2.8,0.7c0.7-0.1,1.1-0.9,1.1-1.5c0-0.1,0-0.4-0.1-0.5
	c0,0.1,0,0,0-0.2c0-0.2,0-0.4-0.1-0.5c-0.2-0.5-0.5-0.9-0.9-1.4c-0.5-0.6-1.1-1.1-1.6-1.6c-0.9-0.8-2.4-0.9-3.3,0
	C836.8,823.5,836.6,825.1,837.6,825.9z"/>
<path class="st5" d="M843.6,826.3C843.6,826.3,843.6,826.3,843.6,826.3C843.6,826.1,843.6,826.2,843.6,826.3z"/>
<rect x="318.1" y="1300.2" class="st17" width="861.7" height="59.1"/>
<text transform="matrix(1 0 0 1 318.0841 1357.4718)" class="st18 st19 st20">UNDER CONSTRUCTION</text>
</svg>
