<svg width="29" height="28" viewBox="0 0 29 28" fill="none" xmlns="http://www.w3.org/2000/svg">
<g clip-path="url(#clip0)">
<path d="M1.40454 12.6644L3.91912 15.6819H9.4512L11.4629 17.6936H15.9891L22.527 25.2374V21.214H25.5445L27.5562 19.2024V10.1499L25.5445 8.1382H23.5329V6.12654L21.5212 4.11487H18.0008L16.9949 3.10904H8.94829L6.4337 5.1207H4.42204L1.40454 8.1382V12.6644Z" fill="#FFB398"/>
<path d="M9.95407 15.6819H8.94824V12.6645C8.94824 12.5309 9.0013 12.4032 9.0956 12.3089L11.1073 10.2972C11.2016 10.2029 11.3295 10.1499 11.4628 10.1499H17.2896L18.651 8.78848L19.3622 9.49967L17.8534 11.0084C17.7591 11.1027 17.6312 11.1558 17.4979 11.1558H11.6711L9.95407 12.8727V15.6819Z" fill="#FE946F"/>
<path d="M18.5038 14.6761H12.9717V13.6703H18.2956L19.6569 12.3089L20.3681 13.0201L18.8594 14.5288C18.765 14.6231 18.6371 14.6761 18.5038 14.6761Z" fill="#FE946F"/>
<path d="M16.9949 7.13237H15.989V5.62362C15.989 5.49003 16.0421 5.36235 16.1364 5.26806L17.6451 3.75931L18.3563 4.47049L16.9949 5.83189V7.13237Z" fill="#FE946F"/>
<path d="M23.03 21.214H22.0241V19.9135L20.6627 18.5521C20.5684 18.4578 20.5154 18.3301 20.5154 18.1965V16.1849C20.5154 16.0513 20.5684 15.9236 20.6627 15.8293L22.1715 14.3206C22.2658 14.2263 22.3937 14.1732 22.527 14.1732H24.0358V15.1791H22.7353L21.5212 16.3932V17.9883L22.8826 19.3497C22.9769 19.444 23.03 19.5717 23.03 19.7053V21.214Z" fill="#FE946F"/>
<path d="M21.0183 9.64695H20.5154V8.64112H20.8101L21.6686 7.78264C21.7629 7.68834 21.8908 7.63528 22.0241 7.63528H23.5329V8.64112H22.2323L21.3739 9.4996C21.2796 9.59389 21.1516 9.64695 21.0183 9.64695Z" fill="#FE946F"/>
<path d="M8.44535 8.13819H7.43952V6.83772L6.07812 5.47626L6.78931 4.76508L8.29805 6.27382C8.39235 6.36812 8.44541 6.4958 8.44541 6.62938V8.13819H8.44535Z" fill="#FE946F"/>
<path d="M4.92502 12.1615H3.91919V11.1557C3.91919 11.0221 3.97225 10.8944 4.06654 10.8001L5.07238 9.7943C5.16667 9.7 5.2946 9.64694 5.42794 9.64694H8.44543V10.6528H5.63621L4.92502 11.364V12.1615Z" fill="#FE946F"/>
<path d="M26.0475 13.6703H25.0417V12.8727L24.3306 12.1615H22.5271V11.1557H24.5388C24.6721 11.1557 24.8 11.2088 24.8943 11.3031L25.9002 12.3089C25.9945 12.4032 26.0475 12.5309 26.0475 12.6645V13.6703Z" fill="#FE946F"/>
<path d="M11.9658 8.1382H10.96V7.13237C10.96 6.99879 11.013 6.87111 11.1073 6.77681L12.1131 5.77098C12.2074 5.67668 12.3354 5.62363 12.4687 5.62363H13.4745V6.62946H12.6769L11.9658 7.34064V8.1382Z" fill="#FE946F"/>
<path d="M25.5445 18.6995H24.5386C24.4053 18.6995 24.2774 18.6464 24.1831 18.5521L23.1772 17.5463L23.8884 16.8351L24.7469 17.6936H25.5445V18.6995Z" fill="#FE946F"/>
<path d="M21.0183 17.1907H19.0066V18.1965H21.0183V17.1907Z" fill="#FE946F"/>
<path d="M1.40454 12.6645H9.4512L11.9658 15.179H18.0008L22.527 25.2374L15.9891 17.6936H11.4629L9.4512 15.682H3.91912L1.40454 12.6645Z" fill="#FE946F"/>
<path d="M21.5212 4.11487V8.13819H23.5329V6.12653L21.5212 4.11487Z" fill="#FE946F"/>
<path d="M22.5271 21.2141H25.5446L27.5563 19.2024H22.5271V21.2141Z" fill="#FE946F"/>
<path d="M8.94818 3.10904V6.62945H7.94234L6.43359 5.12071L8.94818 3.10904Z" fill="#FE946F"/>
<path d="M25.5444 8.64111V19.2024H27.5561V10.1499L25.5444 8.64111Z" fill="#FE946F"/>
<path d="M27.9117 9.79429L25.9001 7.78263C25.8058 7.68833 25.6778 7.63527 25.5445 7.63527H24.0358V6.12652C24.0358 5.99294 23.9827 5.86526 23.8884 5.77096L21.8767 3.7593C21.7824 3.665 21.6545 3.61194 21.5212 3.61194H18.209L17.3505 2.75346C17.2562 2.65917 17.1283 2.60611 16.9949 2.60611H8.94827C8.83411 2.60611 8.72334 2.6449 8.6342 2.71612L6.25736 4.61777H4.42203C4.28869 4.61777 4.16076 4.67083 4.06646 4.76513L1.04897 7.78263C0.954669 7.87692 0.901611 8.0046 0.901611 8.13819V12.6644C0.901611 12.7823 0.94285 12.8963 1.01823 12.9866L3.53281 16.0041C3.62836 16.1185 3.76981 16.1849 3.91911 16.1849H9.24298L11.1073 18.0492C11.2016 18.1435 11.3295 18.1965 11.4629 18.1965H15.7595L22.1469 25.5669C22.2444 25.6793 22.3841 25.7403 22.527 25.7403C22.586 25.7403 22.6454 25.73 22.7028 25.7083C22.8995 25.6352 23.0299 25.4471 23.0299 25.2373V21.7169H25.5445C25.6778 21.7169 25.8058 21.6639 25.9001 21.5696L27.9117 19.5579C28.006 19.4636 28.0591 19.3359 28.0591 19.2023V10.1499C28.0591 10.0163 28.006 9.88859 27.9117 9.79429ZM27.0533 18.9941L25.3363 20.7111H23.0299V19.7053C23.0299 19.5717 22.9769 19.444 22.8826 19.3497L21.5212 17.9883V16.3931L22.7353 15.179H24.0358V14.1732H22.527C22.3937 14.1732 22.2657 14.2262 22.1715 14.3205L20.6627 15.8293C20.5684 15.9236 20.5153 16.0513 20.5153 16.1849V17.1907H19.0066V18.1965H20.5153C20.5153 18.3301 20.5684 18.4578 20.6627 18.5521L22.0241 19.9135V21.214V23.8892L17.0907 18.1965H18.0008V17.1907H15.9891H11.6711L9.95411 15.4737V12.8727L11.6711 11.1557H17.4979C17.6312 11.1557 17.7591 11.1026 17.8534 11.0083L19.3622 9.49958L18.651 8.7884L17.2896 10.1499H11.4629C11.3295 10.1499 11.2016 10.2029 11.1073 10.2972L9.09563 12.3089C9.00133 12.4032 8.94827 12.5308 8.94827 12.6644V15.179H4.1546L1.90744 12.4823V8.34646L4.6303 5.62361H6.22548L7.43952 6.83771V8.13819H8.44536V6.62944C8.44536 6.49585 8.3923 6.36818 8.298 6.27388L7.18662 5.1625L9.12461 3.61194H16.7867L17.2896 4.11486L16.1365 5.26805C16.0422 5.36234 15.9891 5.49002 15.9891 5.62361V7.13236H16.9949V5.83188L18.209 4.61777H21.313L23.0299 6.33479V7.63527H22.0241C21.8908 7.63527 21.7628 7.68833 21.6685 7.78263L20.8101 8.64111H20.5153V9.64694H21.0183C21.1516 9.64694 21.2795 9.59388 21.3738 9.49958L22.2324 8.64111H23.5328H25.3363L27.0533 10.3581V18.9941Z" fill="black"/>
<path d="M18.2955 13.6703H12.9717V14.6761H18.5038C18.6371 14.6761 18.765 14.623 18.8593 14.5287L20.3681 13.02L19.6569 12.3088L18.2955 13.6703Z" fill="black"/>
<path d="M5.07213 9.7943L4.0663 10.8001C3.972 10.8944 3.91895 11.0221 3.91895 11.1557V12.1615H4.92478V11.3639L5.63596 10.6528H8.44519V9.64694H5.42769C5.29436 9.64694 5.16643 9.7 5.07213 9.7943Z" fill="black"/>
<path d="M24.5388 11.1557H22.5271V12.1615H24.3306L25.0417 12.8727V13.6703H26.0475V12.6644C26.0475 12.5309 25.9945 12.4032 25.9002 12.3089L24.8943 11.3031C24.8 11.2088 24.6721 11.1557 24.5388 11.1557Z" fill="black"/>
<path d="M12.1131 5.77098L11.1073 6.77681C11.013 6.87111 10.96 6.99879 10.96 7.13237V8.1382H11.9658V7.34058L12.677 6.62946H13.4745V5.62363H12.4687C12.3354 5.62363 12.2074 5.67668 12.1131 5.77098Z" fill="black"/>
<path d="M23.8884 16.8351L23.1772 17.5463L24.1831 18.5522C24.2774 18.6465 24.4053 18.6995 24.5386 18.6995H25.5445V17.6937H24.7468L23.8884 16.8351Z" fill="black"/>
</g>
<defs>
<clipPath id="clip0">
<rect width="27.1575" height="27.1575" fill="white" transform="translate(0.901611 0.594452)"/>
</clipPath>
</defs>
</svg>
