<svg width="27" height="27" viewBox="0 0 27 27" fill="none" xmlns="http://www.w3.org/2000/svg">
<g clip-path="url(#clip0)">
<path d="M0.447998 26.5517H26.5514V0.448364H0.447998V26.5517Z" fill="#FFE100"/>
<path d="M25.2012 26.5517H26.5513V0.448364H25.2012V26.5517Z" fill="#FFA800"/>
<path d="M0.447998 26.5517H1.79816V0.448364H0.447998V26.5517Z" fill="white"/>
<path d="M26.5515 27.0001H0.448051C0.200463 27.0001 -0.000244141 26.7994 -0.000244141 26.5518V0.448356C-0.000244141 0.200768 0.200463 6.10352e-05 0.448051 6.10352e-05H26.5515C26.799 6.10352e-05 26.9998 0.200768 26.9998 0.448356V26.5518C26.9998 26.7994 26.799 27.0001 26.5515 27.0001ZM0.896346 26.1035H26.1032V0.896651H0.896346V26.1035Z" fill="black"/>
<path d="M20.7006 24.7498C18.4682 24.7498 16.6519 22.9335 16.6519 20.701C16.6519 20.4534 16.8526 20.2527 17.1002 20.2527C17.3477 20.2527 17.5484 20.4534 17.5484 20.701C17.5484 22.4391 18.9625 23.8532 20.7006 23.8532C22.4388 23.8532 23.8528 22.4391 23.8528 20.701C23.8528 18.9629 22.4388 17.5488 20.7006 17.5488C18.4682 17.5488 16.6519 15.7325 16.6519 13.5C16.6519 11.2675 18.4681 9.45126 20.7006 9.45126C22.9332 9.45126 24.7494 11.2675 24.7494 13.5001C24.7494 13.7476 24.5487 13.9483 24.3011 13.9483C24.0535 13.9483 23.8528 13.7476 23.8528 13.5001C23.8528 11.7619 22.4388 10.3479 20.7006 10.3479C18.9625 10.3479 17.5484 11.7619 17.5484 13.5001C17.5484 15.2381 18.9625 16.6522 20.7006 16.6522C22.9331 16.6522 24.7494 18.4685 24.7494 20.701C24.7494 22.9335 22.9331 24.7498 20.7006 24.7498Z" fill="black"/>
<path d="M11.2495 24.7498C9.01701 24.7498 7.20068 22.9335 7.20068 20.701C7.20068 20.4534 7.40139 20.2527 7.64898 20.2527C7.89657 20.2527 8.09727 20.4534 8.09727 20.701C8.09727 22.4391 9.51129 23.8532 11.2495 23.8532C12.9876 23.8532 14.4017 22.4391 14.4017 20.701V9.89956C14.4017 9.65197 14.6024 9.45126 14.85 9.45126C15.0976 9.45126 15.2983 9.65197 15.2983 9.89956V20.7009C15.2982 22.9334 13.4819 24.7498 11.2495 24.7498Z" fill="black"/>
</g>
<defs>
<clipPath id="clip0">
<rect width="27" height="27" fill="white" transform="translate(-0.000244141)"/>
</clipPath>
</defs>
</svg>
