<svg width="28" height="28" viewBox="0 0 28 28" fill="none" xmlns="http://www.w3.org/2000/svg">
<g clip-path="url(#clip0)">
<path d="M27.6086 13.8717V16.9509C27.6086 18.5796 26.2883 19.8997 24.6596 19.8997H15.4597C14.9546 19.8997 14.5487 20.3215 14.5723 20.8316C14.5959 21.3148 15.0138 21.6757 15.485 21.6757H17.6607C18.1518 21.6757 18.5492 22.0738 18.5492 22.5642V24.7843C18.5492 26.4236 17.2202 27.7519 15.5817 27.7519H13.0007C11.3616 27.7519 10.0326 26.4236 10.0326 24.7843V16.9629H3.78446C2.1557 16.9629 0.835449 15.6426 0.835449 14.0139V11.3951C0.835449 9.76636 2.1557 8.44611 3.78446 8.44611H10.0326V8.4457H12.7255C13.2297 8.4457 13.636 8.02551 13.613 7.51539C13.5904 7.0376 13.1791 6.66921 12.7003 6.66921H10.9211C10.4307 6.66921 10.0326 6.2716 10.0326 5.78117V3.56211C10.0326 1.92278 11.3616 0.594452 13.0007 0.594452H15.5817C17.2175 0.594452 18.5444 1.91781 18.5492 3.55382V10.9227H24.6596C26.2883 10.9227 27.6086 12.2436 27.6086 13.8717V13.8717Z" fill="#FFDA44"/>
<path d="M27.6082 13.8717V16.9509C27.6082 18.5796 26.288 19.8997 24.6592 19.8997H15.4594C14.9542 19.8997 14.5483 20.3215 14.5719 20.8316C14.5956 21.3148 15.0135 21.6757 15.4846 21.6757H17.6604C18.1514 21.6757 18.5488 22.0738 18.5488 22.5642V24.7843C18.5488 26.4236 17.2199 27.7519 15.5814 27.7519H14.2908V0.594452H15.5814C17.2172 0.594452 18.5441 1.91781 18.5488 3.55382V10.9227H24.6592C26.288 10.9227 27.6082 12.2436 27.6082 13.8717V13.8717Z" fill="#FFCD00"/>
<path d="M17.7163 23.7825C17.7163 24.2729 17.3189 24.6705 16.8285 24.6705C16.338 24.6705 15.9404 24.2729 15.9404 23.7825C15.9404 23.2921 16.338 22.8947 16.8285 22.8947C17.3189 22.8947 17.7163 23.2921 17.7163 23.7825V23.7825Z" fill="#4895FF"/>
<path d="M17.7162 23.7825C17.7162 24.2729 17.3188 24.6705 16.8284 24.6705V22.8947C17.3188 22.8947 17.7162 23.2921 17.7162 23.7825V23.7825Z" fill="#2682FF"/>
<path d="M18.5492 3.55382V10.9227V12.1402C18.5492 13.1217 17.7542 13.9167 16.7727 13.9167H10.9211C10.4307 13.9167 10.0326 14.3149 10.0326 14.8047V16.9629H3.78446C2.1557 16.9629 0.835449 15.6422 0.835449 14.0139V11.3951C0.835449 9.76677 2.1557 8.44611 3.78446 8.44611H10.0326V8.4457H12.7256C13.2297 8.4457 13.636 8.02551 13.613 7.51539C13.5904 7.0376 13.1791 6.66921 12.7003 6.66921H10.9211C10.4307 6.66921 10.0326 6.2716 10.0326 5.78117V3.56211C10.0326 1.92278 11.3616 0.594452 13.0007 0.594452H15.5817C17.2175 0.594452 18.5444 1.91781 18.5492 3.55382Z" fill="#4895FF"/>
<path d="M18.5488 3.55382V10.9227V12.1402C18.5488 13.1217 17.7538 13.9167 16.7723 13.9167H14.2908V0.594452H15.5814C17.2172 0.594452 18.5441 1.91781 18.5488 3.55382Z" fill="#2682FF"/>
<path d="M12.8456 4.7686C12.8456 5.25883 12.448 5.65644 11.9575 5.65644C11.4665 5.65644 11.0691 5.25883 11.0691 4.7686C11.0691 4.27817 11.4665 3.87994 11.9575 3.87994C12.448 3.87994 12.8456 4.27817 12.8456 4.7686Z" fill="#FFDA44"/>
<path d="M12.8456 4.7686C12.8456 5.25883 12.448 5.65644 11.9575 5.65644V3.87994C12.448 3.87994 12.8456 4.27817 12.8456 4.7686Z" fill="#FFCD00"/>
</g>
<defs>
<clipPath id="clip0">
<rect width="27.1575" height="27.1575" fill="white" transform="translate(0.622803 0.594452)"/>
</clipPath>
</defs>
</svg>
