<svg width="53" height="53" viewBox="0 0 53 53" fill="none" xmlns="http://www.w3.org/2000/svg">
<g clip-path="url(#clip0)">
<path d="M40.5781 7.93359V12.5039L37.4727 15.5508H3.10547L0 12.5039V7.93359C0 5.40459 2.08056 3.26172 4.6582 3.26172H35.9199C38.4976 3.26172 40.5781 5.40459 40.5781 7.93359Z" fill="#4D5A68"/>
<path d="M40.5781 7.93359V12.5039L37.4727 15.5508H20.2891V3.26172H35.9199C38.4976 3.26172 40.5781 5.40459 40.5781 7.93359Z" fill="#304653"/>
<path d="M40.5781 12.5039V47.543C40.5781 50.0718 38.4976 52.2148 35.9199 52.2148H4.6582C2.08056 52.2148 0 50.0718 0 47.543V12.5039H40.5781Z" fill="#F0F56F"/>
<path d="M40.5781 12.5039V47.543C40.5781 50.0718 38.4976 52.2148 35.9199 52.2148H20.2891V12.5039H40.5781Z" fill="#FAFF81"/>
<path d="M7.76367 9.45703C6.90542 9.45703 6.21094 8.77565 6.21094 7.93359V1.73828C6.21094 0.896227 6.90542 0.214844 7.76367 0.214844C8.62192 0.214844 9.31641 0.896227 9.31641 1.73828V7.93359C9.31641 8.77565 8.62192 9.45703 7.76367 9.45703Z" fill="#CAD4E4"/>
<path d="M14.0781 9.45703C13.2199 9.45703 12.5254 8.77565 12.5254 7.93359V1.73828C12.5254 0.896227 13.2199 0.214844 14.0781 0.214844C14.9364 0.214844 15.6309 0.896227 15.6309 1.73828V7.93359C15.6309 8.77565 14.9364 9.45703 14.0781 9.45703Z" fill="#CAD4E4"/>
<path d="M21.8418 1.73828V7.93359C21.8418 8.78662 21.1587 9.45703 20.2891 9.45703C19.4194 9.45703 18.7363 8.78662 18.7363 7.93359V1.73828C18.7363 0.885055 19.4194 0.214844 20.2891 0.214844C21.1587 0.214844 21.8418 0.885055 21.8418 1.73828Z" fill="#CAD4E4"/>
<path d="M26.6035 9.45703C25.7453 9.45703 25.0508 8.77565 25.0508 7.93359V1.73828C25.0508 0.896227 25.7453 0.214844 26.6035 0.214844C27.4618 0.214844 28.1562 0.896227 28.1562 1.73828V7.93359C28.1562 8.77565 27.4618 9.45703 26.6035 9.45703Z" fill="#ADB5CC"/>
<path d="M32.8145 9.45703C31.9562 9.45703 31.2617 8.77565 31.2617 7.93359V1.73828C31.2617 0.896227 31.9562 0.214844 32.8145 0.214844C33.6727 0.214844 34.3672 0.896227 34.3672 1.73828V7.93359C34.3672 8.77565 33.6727 9.45703 32.8145 9.45703Z" fill="#ADB5CC"/>
<path d="M21.8418 41.4492C21.8418 42.3022 21.1587 42.9727 20.2891 42.9727H7.76367C6.89404 42.9727 6.21094 42.3022 6.21094 41.4492C6.21094 40.596 6.89404 39.9258 7.76367 39.9258H20.2891C21.1587 39.9258 21.8418 40.596 21.8418 41.4492Z" fill="#5AB1BB"/>
<path d="M17.1836 33.832H7.76367C6.90542 33.832 6.21094 33.1506 6.21094 32.3086C6.21094 31.4665 6.90542 30.7852 7.76367 30.7852H17.1836C18.0418 30.7852 18.7363 31.4665 18.7363 32.3086C18.7363 33.1506 18.0418 33.832 17.1836 33.832Z" fill="#5AB1BB"/>
<path d="M14.0781 24.6914H7.76367C6.90542 24.6914 6.21094 24.01 6.21094 23.168C6.21094 22.3259 6.90542 21.6445 7.76367 21.6445H14.0781C14.9364 21.6445 15.6309 22.3259 15.6309 23.168C15.6309 24.01 14.9364 24.6914 14.0781 24.6914Z" fill="#5AB1BB"/>
<path d="M42.4346 33.1378C42.9592 24.5437 49.0643 19.6363 49.4212 19.1434C50.1226 18.4328 49.9545 17.2604 49.0803 16.7652L47.1461 15.6694C46.4028 15.2483 46.1486 14.3176 46.5778 13.5884C47.0069 12.8592 47.9555 12.6097 48.6988 13.0308L50.6331 14.1266C53.2563 15.6124 53.7607 19.1219 51.6524 21.2611C51.15 21.9487 45.9963 25.736 45.5348 33.3204C45.4834 34.1605 44.7479 34.8003 43.8916 34.75C43.0281 34.6967 42.3846 33.9719 42.4346 33.1378Z" fill="#304653"/>
<path d="M52.373 9.83473L50.0439 13.7927L46.017 15.0299L42.8971 13.2626L41.9756 9.22231L44.3047 5.26432C45.5935 3.07423 48.4357 2.32703 50.6679 3.59148C52.9001 4.85594 53.6618 7.64464 52.373 9.83473Z" fill="#4D5A68"/>
<path d="M46.017 15.0299L44.4572 14.1463L50.6681 3.59158C52.9003 4.85604 53.6619 7.64464 52.3731 9.83473L50.044 13.7927L46.017 15.0299Z" fill="#304653"/>
<path d="M35.4585 38.8834L27.1213 34.1608C27.5615 29.6958 29.2098 25.4928 32.0416 21.9603C32.5219 21.388 40.8701 10.9181 41.2615 10.4361L41.9756 9.22241L50.0438 13.7927L49.3451 14.9802C49.2985 15.0593 43.962 28.1499 43.7674 28.6025C42.0653 32.775 39.1796 36.277 35.4585 38.8834Z" fill="#ED4E61"/>
<path d="M35.4585 38.8834L31.2899 36.5221L46.0098 11.5076L50.0439 13.7927L49.3452 14.9802C49.2986 15.0593 43.9621 28.1499 43.7675 28.6025C42.0653 32.775 39.1796 36.277 35.4585 38.8834Z" fill="#EF233C"/>
<path d="M32.9979 33.6197C31.3305 32.6751 29.3236 32.7343 27.7008 33.7854L27.1214 34.1609C27.1046 34.4329 27.0342 34.6746 27.0176 34.9465L26.6224 41.4074L25.256 43.7294C24.8214 44.4682 25.0712 45.3838 25.8243 45.8104C26.5774 46.237 27.5107 45.9915 27.9453 45.2528L29.3118 42.9308L34.8169 39.3645C35.0486 39.2144 35.2266 39.0339 35.4584 38.8836L35.5001 38.2036C35.6166 36.2992 34.6654 34.5642 32.9979 33.6197Z" fill="#CAD4E4"/>
<path d="M32.998 33.6197L28.9298 40.5329L25.8243 45.8103C26.5774 46.2369 27.5107 45.9914 27.9454 45.2527L29.3118 42.9307L34.817 39.3644C35.0486 39.2143 35.2267 39.0338 35.4584 38.8835L35.5002 38.2035C35.6166 36.2992 34.6654 34.5642 32.998 33.6197Z" fill="#ADB5CC"/>
<path d="M20.2891 9.45703V0.214844C21.1587 0.214844 21.8418 0.885055 21.8418 1.73828V7.93359C21.8418 8.78662 21.1587 9.45703 20.2891 9.45703Z" fill="#ADB5CC"/>
<path d="M21.8418 41.4492C21.8418 42.3022 21.1587 42.9727 20.2891 42.9727V39.9258C21.1587 39.9258 21.8418 40.596 21.8418 41.4492Z" fill="#5AB1BB"/>
</g>
<defs>
<clipPath id="clip0">
<rect width="53" height="52" fill="white" transform="translate(0 0.214844)"/>
</clipPath>
</defs>
</svg>
